<svg id="map" style="width:90vw; height:90vh; background: white" transform="rotate(0)">
       <g id="C4" class="linegroup"><line x1="25.134010662932695%" y1="69.96536331901244%" x2="32.22284248905749%" y2="70.882075471145%" line="C4" id="C4-Cuatro Caminos-Plaza del Carbón" class="line lineC4"></line><line x1="32.22284248905749%" y1="70.882075471145%" x2="40.37287675888572%" y2="77.12188783420746%" line="C4" id="C4-Plaza del Carbón-San Telmo" class="line lineC4"></line><line x1="40.37287675888572%" y1="77.12188783420746%" x2="45.37989392047124%" y2="72.20597205939157%" line="C4" id="C4-San Telmo-Madre de Dios" class="line lineC4"></line><line x1="45.37989392047124%" y1="72.20597205939157%" x2="47.403602743226884%" y2="68.47305069703809%" line="C4" id="C4-Madre de Dios-Minotauro" class="line lineC4"></line><line x1="47.403602743226884%" y1="68.47305069703809%" x2="49.88867198091723%" y2="51.41812005169617%" line="C4" id="C4-Minotauro-Catavinos" class="line lineC4"></line><line x1="49.88867198091723%" y1="51.41812005169617%" x2="38.26502236940382%" y2="45.51904412996167%" line="C4" id="C4-Catavinos-Sevilla" class="line lineC4"></line><line x1="38.26502236940382%" y1="45.51904412996167%" x2="35.798150943006796%" y2="53.59562201776214%" line="C4" id="C4-Sevilla-Alameda Cristina" class="line lineC4"></line><line x1="35.798150943006796%" y1="53.59562201776214%" x2="32.27873232123771%" y2="50.35839549657182%" line="C4" id="C4-Alameda Cristina-Porvera" class="line lineC4"></line><line x1="32.27873232123771%" y1="50.35839549657182%" x2="27.555125260803027%" y2="48.89428357163676%" line="C4" id="C4-Porvera-Santiago" class="line lineC4"></line><line x1="27.555125260803027%" y1="48.89428357163676%" x2="22.14622168652717%" y2="51.9895058344132%" line="C4" id="C4-Santiago-Luis Vives" class="line lineC4"></line><line x1="22.14622168652717%" y1="51.9895058344132%" x2="23.25416100721487%" y2="59.30530430532406%" line="C4" id="C4-Luis Vives-Puerta de Rota" class="line lineC4"></line><line x1="23.25416100721487%" y1="59.30530430532406%" x2="25.134010662932695%" y2="69.96536331901244%" line="C4" id="C4-Puerta de Rota-Cuatro Caminos" class="line lineC4"></line></g><g id="E8" class="linegroup"><line x1="58.48205849294918%" y1="69.7193795933227%" x2="58.53639029607866%" y2="75.51968470965424%" line="E8" id="E8-El Retiro-Parque Atlántico" class="line lineE8"></line><line x1="58.53639029607866%" y1="75.51968470965424%" x2="64.17853608795764%" y2="80.14078395429996%" line="E8" id="E8-Parque Atlántico-Club Nazaret" class="line lineE8"></line><line x1="64.17853608795764%" y1="80.14078395429996%" x2="72.66227600516804%" y2="83.60361944035024%" line="E8" id="E8-Club Nazaret-Av. Nazaret" class="line lineE8"></line><line x1="72.66227600516804%" y1="83.60361944035024%" x2="79.73314769977927%" y2="86.10042509158583%" line="E8" id="E8-Av. Nazaret-Rotonda 4" class="line lineE8"></line><line x1="79.73314769977927%" y1="86.10042509158583%" x2="80.59789636876842%" y2="77.82727649960437%" line="E8" id="E8-Rotonda 4-La Canaleja" class="line lineE8"></line><line x1="80.59789636876842%" y1="77.82727649960437%" x2="71.36789028972585%" y2="68.90939447437766%" line="E8" id="E8-La Canaleja-Las Delicias" class="line lineE8"></line><line x1="71.36789028972585%" y1="68.90939447437766%" x2="71.23165191106577%" y2="74.73141772965982%" line="E8" id="E8-Las Delicias-Plaza Macedonia" class="line lineE8"></line><line x1="71.23165191106577%" y1="74.73141772965982%" x2="62.77414841307688%" y2="74.24008599755003%" line="E8" id="E8-Plaza Macedonia-Tartessos" class="line lineE8"></line><line x1="62.77414841307688%" y1="74.24008599755003%" x2="58.53639029607866%" y2="75.51968470965424%" line="E8" id="E8-Tartessos-Parque Atlántico" class="line lineE8"></line><line x1="58.53639029607866%" y1="75.51968470965424%" x2="58.48205849294918%" y2="69.7193795933227%" line="E8" id="E8-Parque Atlántico-El Retiro" class="line lineE8"></line></g><g id="E1" class="linegroup"><line x1="54.16407087948724%" y1="87.84416114001823%" x2="51.82062559002512%" y2="77.68677477299894%" line="E1" id="E1-Parque Vallesequillo-Vallesequillo" class="line lineE1"></line><line x1="51.82062559002512%" y1="77.68677477299894%" x2="45.37989392047124%" y2="72.20597205939157%" line="E1" id="E1-Vallesequillo-Madre de Dios" class="line lineE1"></line><line x1="45.37989392047124%" y1="72.20597205939157%" x2="51.82062559002512%" y2="77.68677477299894%" line="E1" id="E1-Madre de Dios-Vallesequillo" class="line lineE1"></line><line x1="51.82062559002512%" y1="77.68677477299894%" x2="54.16407087948724%" y2="87.84416114001823%" line="E1" id="E1-Vallesequillo-Parque Vallesequillo" class="line lineE1"></line></g><g id="L5" class="linegroup"><line x1="35.798150943006796%" y1="53.59562201776214%" x2="38.26502236940382%" y2="45.51904412996167%" line="L5" id="L5-Alameda Cristina-Sevilla" class="line lineL5"></line><line x1="38.26502236940382%" y1="45.51904412996167%" x2="45.63436395007627%" y2="39.567606067573486%" line="L5" id="L5-Sevilla-Plaza del Caballo" class="line lineL5"></line><line x1="45.63436395007627%" y1="39.567606067573486%" x2="52.626982982640726%" y2="30.939064002163757%" line="L5" id="L5-Plaza del Caballo-Hontoria" class="line lineL5"></line><line x1="52.626982982640726%" y1="30.939064002163757%" x2="58.961732157334644%" y2="25.363571694145204%" line="L5" id="L5-Hontoria-Av. Andalucía" class="line lineL5"></line><line x1="58.961732157334644%" y1="25.363571694145204%" x2="68.2346426433967%" y2="17.06102586365854%" line="L5" id="L5-Av. Andalucía-Corte Inglés" class="line lineL5"></line><line x1="68.2346426433967%" y1="17.06102586365854%" x2="77.03907863143401%" y2="4.5%" line="L5" id="L5-Corte Inglés-Pozo Albero" class="line lineL5"></line><line x1="77.03907863143401%" y1="4.5%" x2="68.2346426433967%" y2="17.06102586365854%" line="L5" id="L5-Pozo Albero-Corte Inglés" class="line lineL5"></line><line x1="68.2346426433967%" y1="17.06102586365854%" x2="58.961732157334644%" y2="25.363571694145204%" line="L5" id="L5-Corte Inglés-Av. Andalucía" class="line lineL5"></line><line x1="58.961732157334644%" y1="25.363571694145204%" x2="52.626982982640726%" y2="30.939064002163757%" line="L5" id="L5-Av. Andalucía-Hontoria" class="line lineL5"></line><line x1="52.626982982640726%" y1="30.939064002163757%" x2="45.63436395007627%" y2="39.567606067573486%" line="L5" id="L5-Hontoria-Plaza del Caballo" class="line lineL5"></line><line x1="45.63436395007627%" y1="39.567606067573486%" x2="38.26502236940382%" y2="45.51904412996167%" line="L5" id="L5-Plaza del Caballo-Sevilla" class="line lineL5"></line><line x1="38.26502236940382%" y1="45.51904412996167%" x2="35.798150943006796%" y2="53.59562201776214%" line="L5" id="L5-Sevilla-Alameda Cristina" class="line lineL5"></line></g><g id="E4" class="linegroup"><line x1="27.555125260803027%" y1="48.89428357163676%" x2="21.6655903819461%" y2="41.046346828581356%" line="E4" id="E4-Santiago-Zoo" class="line lineE4"></line><line x1="21.6655903819461%" y1="41.046346828581356%" x2="18.862499334147245%" y2="35.265211452598706%" line="E4" id="E4-Zoo-Rocio" class="line lineE4"></line><line x1="18.862499334147245%" y1="35.265211452598706%" x2="17.26922081902217%" y2="30.283996635838466%" line="E4" id="E4-Rocio-San Juan de Dios" class="line lineE4"></line><line x1="17.26922081902217%" y1="30.283996635838466%" x2="4.5%" y2="26.25757492557478%" line="E4" id="E4-San Juan de Dios-Luz Shopping (i)" class="line lineE4"></line><line x1="4.5%" y1="26.25757492557478%" x2="4.920902740161169%" y2="32.929721918111454%" line="E4" id="E4-Luz Shopping (i)-Luz Shopping (ii)" class="line lineE4"></line><line x1="4.920902740161169%" y1="32.929721918111454%" x2="9.208897232365947%" y2="35.6939346812646%" line="E4" id="E4-Luz Shopping (ii)-Area Sur" class="line lineE4"></line><line x1="9.208897232365947%" y1="35.6939346812646%" x2="17.26922081902217%" y2="30.283996635838466%" line="E4" id="E4-Area Sur-San Juan de Dios" class="line lineE4"></line><line x1="17.26922081902217%" y1="30.283996635838466%" x2="18.862499334147245%" y2="35.265211452598706%" line="E4" id="E4-San Juan de Dios-Rocio" class="line lineE4"></line><line x1="18.862499334147245%" y1="35.265211452598706%" x2="21.6655903819461%" y2="41.046346828581356%" line="E4" id="E4-Rocio-Zoo" class="line lineE4"></line><line x1="21.6655903819461%" y1="41.046346828581356%" x2="27.555125260803027%" y2="48.89428357163676%" line="E4" id="E4-Zoo-Santiago" class="line lineE4"></line></g><g id="C1" class="linegroup"><line x1="18.101115626019716%" y1="76.2000136305413%" x2="21.22629747237429%" y2="86.02606034557576%" line="C1" id="C1-Puerta del Sur-UPACE" class="line lineC1"></line><line x1="21.22629747237429%" y1="86.02606034557576%" x2="30.046950125740068%" y2="92.07730004866387%" line="C1" id="C1-UPACE-Hospital FREMAP" class="line lineC1"></line><line x1="30.046950125740068%" y1="92.07730004866387%" x2="39.548817219902055%" y2="94.5%" line="C1" id="C1-Hospital FREMAP-El Portal" class="line lineC1"></line><line x1="39.548817219902055%" y1="94.5%" x2="54.16407087948724%" y2="87.84416114001823%" line="C1" id="C1-El Portal-Parque Vallesequillo" class="line lineC1"></line><line x1="54.16407087948724%" y1="87.84416114001823%" x2="70.2157421949607%" y2="89.57040416912409%" line="C1" id="C1-Parque Vallesequillo-Timanfaya" class="line lineC1"></line><line x1="70.2157421949607%" y1="89.57040416912409%" x2="79.73314769977927%" y2="86.10042509158583%" line="C1" id="C1-Timanfaya-Rotonda 4" class="line lineC1"></line><line x1="79.73314769977927%" y1="86.10042509158583%" x2="89.78281760200906%" y2="65.82102023765823%" line="C1" id="C1-Rotonda 4-Rotonda 6" class="line lineC1"></line><line x1="89.78281760200906%" y1="65.82102023765823%" x2="84.81994104900087%" y2="49.68383411023657%" line="C1" id="C1-Rotonda 6-El Motorista" class="line lineC1"></line><line x1="84.81994104900087%" y1="49.68383411023657%" x2="79.66102042589434%" y2="37.694530148243736%" line="C1" id="C1-El Motorista-La Granja" class="line lineC1"></line><line x1="79.66102042589434%" y1="37.694530148243736%" x2="71.39370074678186%" y2="22.427691666881785%" line="C1" id="C1-La Granja-La Pepa" class="line lineC1"></line><line x1="71.39370074678186%" y1="22.427691666881785%" x2="68.2346426433967%" y2="17.06102586365854%" line="C1" id="C1-La Pepa-Corte Inglés" class="line lineC1"></line><line x1="68.2346426433967%" y1="17.06102586365854%" x2="51.13608196878187%" y2="10.568904832773127%" line="C1" id="C1-Corte Inglés-Las Buganvillas" class="line lineC1"></line><line x1="51.13608196878187%" y1="10.568904832773127%" x2="32.29078206508371%" y2="16.59274348853747%" line="C1" id="C1-Las Buganvillas-Circunvalación" class="line lineC1"></line><line x1="32.29078206508371%" y1="16.59274348853747%" x2="23.193703204633103%" y2="23.769877218765167%" line="C1" id="C1-Circunvalación-Hospital" class="line lineC1"></line><line x1="23.193703204633103%" y1="23.769877218765167%" x2="17.26922081902217%" y2="30.283996635838466%" line="C1" id="C1-Hospital-San Juan de Dios" class="line lineC1"></line><line x1="17.26922081902217%" y1="30.283996635838466%" x2="12.634406092440049%" y2="52.99261729579415%" line="C1" id="C1-San Juan de Dios-Picadueñas" class="line lineC1"></line><line x1="12.634406092440049%" y1="52.99261729579415%" x2="18.101115626019716%" y2="76.2000136305413%" line="C1" id="C1-Picadueñas-Puerta del Sur" class="line lineC1"></line></g><g id="C2" class="linegroup"><line x1="18.101115626019716%" y1="76.2000136305413%" x2="12.634406092440049%" y2="52.99261729579415%" line="C2" id="C2-Puerta del Sur-Picadueñas" class="line lineC2"></line><line x1="12.634406092440049%" y1="52.99261729579415%" x2="17.26922081902217%" y2="30.283996635838466%" line="C2" id="C2-Picadueñas-San Juan de Dios" class="line lineC2"></line><line x1="17.26922081902217%" y1="30.283996635838466%" x2="23.193703204633103%" y2="23.769877218765167%" line="C2" id="C2-San Juan de Dios-Hospital" class="line lineC2"></line><line x1="23.193703204633103%" y1="23.769877218765167%" x2="32.29078206508371%" y2="16.59274348853747%" line="C2" id="C2-Hospital-Circunvalación" class="line lineC2"></line><line x1="32.29078206508371%" y1="16.59274348853747%" x2="51.13608196878187%" y2="10.568904832773127%" line="C2" id="C2-Circunvalación-Las Buganvillas" class="line lineC2"></line><line x1="51.13608196878187%" y1="10.568904832773127%" x2="68.2346426433967%" y2="17.06102586365854%" line="C2" id="C2-Las Buganvillas-Corte Inglés" class="line lineC2"></line><line x1="68.2346426433967%" y1="17.06102586365854%" x2="71.39370074678186%" y2="22.427691666881785%" line="C2" id="C2-Corte Inglés-La Pepa" class="line lineC2"></line><line x1="71.39370074678186%" y1="22.427691666881785%" x2="79.66102042589434%" y2="37.694530148243736%" line="C2" id="C2-La Pepa-La Granja" class="line lineC2"></line><line x1="79.66102042589434%" y1="37.694530148243736%" x2="84.81994104900087%" y2="49.68383411023657%" line="C2" id="C2-La Granja-El Motorista" class="line lineC2"></line><line x1="84.81994104900087%" y1="49.68383411023657%" x2="89.78281760200906%" y2="65.82102023765823%" line="C2" id="C2-El Motorista-Rotonda 6" class="line lineC2"></line><line x1="89.78281760200906%" y1="65.82102023765823%" x2="79.73314769977927%" y2="86.10042509158583%" line="C2" id="C2-Rotonda 6-Rotonda 4" class="line lineC2"></line><line x1="79.73314769977927%" y1="86.10042509158583%" x2="70.2157421949607%" y2="89.57040416912409%" line="C2" id="C2-Rotonda 4-Timanfaya" class="line lineC2"></line><line x1="70.2157421949607%" y1="89.57040416912409%" x2="54.16407087948724%" y2="87.84416114001823%" line="C2" id="C2-Timanfaya-Parque Vallesequillo" class="line lineC2"></line><line x1="54.16407087948724%" y1="87.84416114001823%" x2="39.548817219902055%" y2="94.5%" line="C2" id="C2-Parque Vallesequillo-El Portal" class="line lineC2"></line><line x1="39.548817219902055%" y1="94.5%" x2="30.046950125740068%" y2="92.07730004866387%" line="C2" id="C2-El Portal-Hospital FREMAP" class="line lineC2"></line><line x1="30.046950125740068%" y1="92.07730004866387%" x2="21.22629747237429%" y2="86.02606034557576%" line="C2" id="C2-Hospital FREMAP-UPACE" class="line lineC2"></line><line x1="21.22629747237429%" y1="86.02606034557576%" x2="18.101115626019716%" y2="76.2000136305413%" line="C2" id="C2-UPACE-Puerta del Sur" class="line lineC2"></line></g><g id="E7" class="linegroup"><line x1="66.82279302494301%" y1="37.60365210272299%" x2="65.6775940101414%" y2="43.93295226524029%" line="E7" id="E7-Av. Europa-Palacio Municipal de Deportes" class="line lineE7"></line><line x1="65.6775940101414%" y1="43.93295226524029%" x2="71.39680120846637%" y2="51.41708040396388%" line="E7" id="E7-Palacio Municipal de Deportes-Lola Flores" class="line lineE7"></line><line x1="71.39680120846637%" y1="51.41708040396388%" x2="73.35087363294559%" y2="55.70255672609825%" line="E7" id="E7-Lola Flores-Biarritz" class="line lineE7"></line><line x1="73.35087363294559%" y1="55.70255672609825%" x2="74.4622177005322%" y2="61.65625390557609%" line="E7" id="E7-Biarritz-Olivar de Rivero" class="line lineE7"></line><line x1="74.4622177005322%" y1="61.65625390557609%" x2="85.15685640144262%" y2="64.66844375061437%" line="E7" id="E7-Olivar de Rivero-La Pita" class="line lineE7"></line><line x1="85.15685640144262%" y1="64.66844375061437%" x2="89.78281760200906%" y2="65.82102023765823%" line="E7" id="E7-La Pita-Rotonda 6" class="line lineE7"></line><line x1="89.78281760200906%" y1="65.82102023765823%" x2="83.63212822639474%" y2="59.58069245760845%" line="E7" id="E7-Rotonda 6-Av. Taginaste" class="line lineE7"></line><line x1="83.63212822639474%" y1="59.58069245760845%" x2="79.8017824544985%" y2="51.6576018628132%" line="E7" id="E7-Av. Taginaste-Ciudad de los Niños" class="line lineE7"></line><line x1="79.8017824544985%" y1="51.6576018628132%" x2="73.35087363294559%" y2="55.70255672609825%" line="E7" id="E7-Ciudad de los Niños-Biarritz" class="line lineE7"></line><line x1="73.35087363294559%" y1="55.70255672609825%" x2="71.39680120846637%" y2="51.41708040396388%" line="E7" id="E7-Biarritz-Lola Flores" class="line lineE7"></line><line x1="71.39680120846637%" y1="51.41708040396388%" x2="65.6775940101414%" y2="43.93295226524029%" line="E7" id="E7-Lola Flores-Palacio Municipal de Deportes" class="line lineE7"></line><line x1="65.6775940101414%" y1="43.93295226524029%" x2="66.82279302494301%" y2="37.60365210272299%" line="E7" id="E7-Palacio Municipal de Deportes-Av. Europa" class="line lineE7"></line></g><g id="L6" class="linegroup"><line x1="52.626982982640726%" y1="30.939064002163757%" x2="56.528550638897634%" y2="35.93592407381481%" line="L6" id="L6-Hontoria-IFECA" class="line lineL6"></line><line x1="56.528550638897634%" y1="35.93592407381481%" x2="66.82279302494301%" y2="37.60365210272299%" line="L6" id="L6-IFECA-Av. Europa" class="line lineL6"></line><line x1="66.82279302494301%" y1="37.60365210272299%" x2="79.66102042589434%" y2="37.694530148243736%" line="L6" id="L6-Av. Europa-La Granja" class="line lineL6"></line><line x1="79.66102042589434%" y1="37.694530148243736%" x2="86.3417185380783%" y2="36.52547520830356%" line="L6" id="L6-La Granja-Av. La Granja" class="line lineL6"></line><line x1="86.3417185380783%" y1="36.52547520830356%" x2="93.67193617114124%" y2="36.16461421261856%" line="L6" id="L6-Av. La Granja-Ctra. Guadalcacín" class="line lineL6"></line><line x1="93.67193617114124%" y1="36.16461421261856%" x2="86.3417185380783%" y2="36.52547520830356%" line="L6" id="L6-Ctra. Guadalcacín-Av. La Granja" class="line lineL6"></line><line x1="86.3417185380783%" y1="36.52547520830356%" x2="79.66102042589434%" y2="37.694530148243736%" line="L6" id="L6-Av. La Granja-La Granja" class="line lineL6"></line><line x1="79.66102042589434%" y1="37.694530148243736%" x2="66.82279302494301%" y2="37.60365210272299%" line="L6" id="L6-La Granja-Av. Europa" class="line lineL6"></line><line x1="66.82279302494301%" y1="37.60365210272299%" x2="56.528550638897634%" y2="35.93592407381481%" line="L6" id="L6-Av. Europa-IFECA" class="line lineL6"></line><line x1="56.528550638897634%" y1="35.93592407381481%" x2="52.626982982640726%" y2="30.939064002163757%" line="L6" id="L6-IFECA-Hontoria" class="line lineL6"></line></g><g id="E2" class="linegroup"><line x1="39.548817219902055%" y1="94.5%" x2="45.76203011896624%" y2="87.38645322874241%" line="E2" id="E2-El Portal-Moreno Mendoza" class="line lineE2"></line><line x1="45.76203011896624%" y1="87.38645322874241%" x2="40.62494619400057%" y2="88.18624786407044%" line="E2" id="E2-Moreno Mendoza-Diego de Cádiz" class="line lineE2"></line><line x1="40.62494619400057%" y1="88.18624786407044%" x2="40.69196149334573%" y2="83.0299777542246%" line="E2" id="E2-Diego de Cádiz-Ronda de San Telmo" class="line lineE2"></line><line x1="40.69196149334573%" y1="83.0299777542246%" x2="34.504297853420866%" y2="78.2392037634849%" line="E2" id="E2-Ronda de San Telmo-Azorín" class="line lineE2"></line><line x1="34.504297853420866%" y1="78.2392037634849%" x2="27.02806455449636%" y2="74.50209543232054%" line="E2" id="E2-Azorín-Consejo de Europa" class="line lineE2"></line><line x1="27.02806455449636%" y1="74.50209543232054%" x2="25.308479796784308%" y2="84.16521437588932%" line="E2" id="E2-Consejo de Europa-Caparrós" class="line lineE2"></line><line x1="25.308479796784308%" y1="84.16521437588932%" x2="30.814031833702458%" y2="86.02594963764507%" line="E2" id="E2-Caparrós-La igualdad" class="line lineE2"></line><line x1="30.814031833702458%" y1="86.02594963764507%" x2="30.046950125740068%" y2="92.07730004866387%" line="E2" id="E2-La igualdad-Hospital FREMAP" class="line lineE2"></line><line x1="30.046950125740068%" y1="92.07730004866387%" x2="39.548817219902055%" y2="94.5%" line="E2" id="E2-Hospital FREMAP-El Portal" class="line lineE2"></line></g><g id="L3" class="linegroup"><line x1="23.193703204633103%" y1="23.769877218765167%" x2="28.177691144702806%" y2="36.34988114051345%" line="L3" id="L3-Hospital-La Plata" class="line lineL3"></line><line x1="28.177691144702806%" y1="36.34988114051345%" x2="27.555125260803027%" y2="48.89428357163676%" line="L3" id="L3-La Plata-Santiago" class="line lineL3"></line><line x1="27.555125260803027%" y1="48.89428357163676%" x2="28.177691144702806%" y2="36.34988114051345%" line="L3" id="L3-Santiago-La Plata" class="line lineL3"></line><line x1="28.177691144702806%" y1="36.34988114051345%" x2="23.193703204633103%" y2="23.769877218765167%" line="L3" id="L3-La Plata-Hospital" class="line lineL3"></line></g><g id="LT" class="linegroup"><line x1="35.798150943006796%" y1="53.59562201776214%" x2="35.99684805034386%" y2="62.29497762803238%" line="LT" id="LT-Alameda Cristina-Gallo Azul" class="line lineLT"></line><line x1="35.99684805034386%" y1="62.29497762803238%" x2="33.541525282828495%" y2="64.2014350513179%" line="LT" id="LT-Gallo Azul-Arenal" class="line lineLT"></line><line x1="33.541525282828495%" y1="64.2014350513179%" x2="31.607836929669556%" y2="67.34819394156216%" line="LT" id="LT-Arenal-Alameda Vieja" class="line lineLT"></line><line x1="31.607836929669556%" y1="67.34819394156216%" x2="25.134010662932695%" y2="69.96536331901244%" line="LT" id="LT-Alameda Vieja-Cuatro Caminos" class="line lineLT"></line><line x1="25.134010662932695%" y1="69.96536331901244%" x2="18.101115626019716%" y2="76.2000136305413%" line="LT" id="LT-Cuatro Caminos-Puerta del Sur" class="line lineLT"></line><line x1="18.101115626019716%" y1="76.2000136305413%" x2="25.134010662932695%" y2="69.96536331901244%" line="LT" id="LT-Puerta del Sur-Cuatro Caminos" class="line lineLT"></line><line x1="25.134010662932695%" y1="69.96536331901244%" x2="31.607836929669556%" y2="67.34819394156216%" line="LT" id="LT-Cuatro Caminos-Alameda Vieja" class="line lineLT"></line><line x1="31.607836929669556%" y1="67.34819394156216%" x2="35.99684805034386%" y2="62.29497762803238%" line="LT" id="LT-Alameda Vieja-Gallo Azul" class="line lineLT"></line><line x1="35.99684805034386%" y1="62.29497762803238%" x2="33.541525282828495%" y2="64.2014350513179%" line="LT" id="LT-Gallo Azul-Arenal" class="line lineLT"></line><line x1="33.541525282828495%" y1="64.2014350513179%" x2="35.798150943006796%" y2="53.59562201776214%" line="LT" id="LT-Arenal-Alameda Cristina" class="line lineLT"></line></g><g id="E5" class="linegroup"><line x1="28.177691144702806%" y1="36.34988114051345%" x2="34.391330157519924%" y2="31.069055905023927%" line="E5" id="E5-La Plata-La Unión" class="line lineE5"></line><line x1="34.391330157519924%" y1="31.069055905023927%" x2="38.369154484582694%" y2="28.51843873643312%" line="E5" id="E5-La Unión-Plaza de las Marinas" class="line lineE5"></line><line x1="38.369154484582694%" y1="28.51843873643312%" x2="40.64836212408133%" y2="21.57783500090448%" line="E5" id="E5-Plaza de las Marinas-Federico García Lorca" class="line lineE5"></line><line x1="40.64836212408133%" y1="21.57783500090448%" x2="43.493857146298694%" y2="13.964197642646788%" line="E5" id="E5-Federico García Lorca-Av. del Tamarix" class="line lineE5"></line><line x1="43.493857146298694%" y1="13.964197642646788%" x2="48.17692973013849%" y2="18.367023509670368%" line="E5" id="E5-Av. del Tamarix-Donantes de Sangre" class="line lineE5"></line><line x1="48.17692973013849%" y1="18.367023509670368%" x2="53.0907420183144%" y2="19.12620419998857%" line="E5" id="E5-Donantes de Sangre-Albariza" class="line lineE5"></line><line x1="53.0907420183144%" y1="19.12620419998857%" x2="58.961732157334644%" y2="25.363571694145204%" line="E5" id="E5-Albariza-Av. Andalucía" class="line lineE5"></line><line x1="58.961732157334644%" y1="25.363571694145204%" x2="62.953571068281164%" y2="29.60289957663921%" line="E5" id="E5-Av. Andalucía-El Altillo" class="line lineE5"></line><line x1="62.953571068281164%" y1="29.60289957663921%" x2="58.961732157334644%" y2="25.363571694145204%" line="E5" id="E5-El Altillo-Av. Andalucía" class="line lineE5"></line><line x1="58.961732157334644%" y1="25.363571694145204%" x2="53.0907420183144%" y2="19.12620419998857%" line="E5" id="E5-Av. Andalucía-Albariza" class="line lineE5"></line><line x1="53.0907420183144%" y1="19.12620419998857%" x2="48.17692973013849%" y2="18.367023509670368%" line="E5" id="E5-Albariza-Donantes de Sangre" class="line lineE5"></line><line x1="48.17692973013849%" y1="18.367023509670368%" x2="43.493857146298694%" y2="13.964197642646788%" line="E5" id="E5-Donantes de Sangre-Av. del Tamarix" class="line lineE5"></line><line x1="43.493857146298694%" y1="13.964197642646788%" x2="40.64836212408133%" y2="21.57783500090448%" line="E5" id="E5-Av. del Tamarix-Federico García Lorca" class="line lineE5"></line><line x1="40.64836212408133%" y1="21.57783500090448%" x2="38.369154484582694%" y2="28.51843873643312%" line="E5" id="E5-Federico García Lorca-Plaza de las Marinas" class="line lineE5"></line><line x1="38.369154484582694%" y1="28.51843873643312%" x2="34.391330157519924%" y2="31.069055905023927%" line="E5" id="E5-Plaza de las Marinas-La Unión" class="line lineE5"></line><line x1="34.391330157519924%" y1="31.069055905023927%" x2="28.177691144702806%" y2="36.34988114051345%" line="E5" id="E5-La Unión-La Plata" class="line lineE5"></line></g><g id="L4" class="linegroup"><line x1="35.798150943006796%" y1="53.59562201776214%" x2="38.26502236940382%" y2="45.51904412996167%" line="L4" id="L4-Alameda Cristina-Sevilla" class="line lineL4"></line><line x1="38.26502236940382%" y1="45.51904412996167%" x2="36.662842782763384%" y2="40.392735457115485%" line="L4" id="L4-Sevilla-Escuela de Arte Ecuestre" class="line lineL4"></line><line x1="36.662842782763384%" y1="40.392735457115485%" x2="41.284719389492665%" y2="34.32453226239013%" line="L4" id="L4-Escuela de Arte Ecuestre-Duque de Abrantes" class="line lineL4"></line><line x1="41.284719389492665%" y1="34.32453226239013%" x2="45.56390253789818%" y2="24.313741206906254%" line="L4" id="L4-Duque de Abrantes-El Almendral" class="line lineL4"></line><line x1="45.56390253789818%" y1="24.313741206906254%" x2="48.17692973013849%" y2="18.367023509670368%" line="L4" id="L4-El Almendral-Donantes de Sangre" class="line lineL4"></line><line x1="48.17692973013849%" y1="18.367023509670368%" x2="51.13608196878187%" y2="10.568904832773127%" line="L4" id="L4-Donantes de Sangre-Las Buganvillas" class="line lineL4"></line><line x1="51.13608196878187%" y1="10.568904832773127%" x2="48.17692973013849%" y2="18.367023509670368%" line="L4" id="L4-Las Buganvillas-Donantes de Sangre" class="line lineL4"></line><line x1="48.17692973013849%" y1="18.367023509670368%" x2="45.56390253789818%" y2="24.313741206906254%" line="L4" id="L4-Donantes de Sangre-El Almendral" class="line lineL4"></line><line x1="45.56390253789818%" y1="24.313741206906254%" x2="41.284719389492665%" y2="34.32453226239013%" line="L4" id="L4-El Almendral-Duque de Abrantes" class="line lineL4"></line><line x1="41.284719389492665%" y1="34.32453226239013%" x2="36.662842782763384%" y2="40.392735457115485%" line="L4" id="L4-Duque de Abrantes-Escuela de Arte Ecuestre" class="line lineL4"></line><line x1="36.662842782763384%" y1="40.392735457115485%" x2="38.26502236940382%" y2="45.51904412996167%" line="L4" id="L4-Escuela de Arte Ecuestre-Sevilla" class="line lineL4"></line><line x1="38.26502236940382%" y1="45.51904412996167%" x2="35.798150943006796%" y2="53.59562201776214%" line="L4" id="L4-Sevilla-Alameda Cristina" class="line lineL4"></line></g><g id="L1" class="linegroup"><line x1="39.548817219902055%" y1="94.5%" x2="40.62494619400057%" y2="88.18624786407044%" line="L1" id="L1-El Portal-Diego de Cádiz" class="line lineL1"></line><line x1="40.62494619400057%" y1="88.18624786407044%" x2="40.69196149334573%" y2="83.0299777542246%" line="L1" id="L1-Diego de Cádiz-Ronda de San Telmo" class="line lineL1"></line><line x1="40.69196149334573%" y1="83.0299777542246%" x2="40.37287675888572%" y2="77.12188783420746%" line="L1" id="L1-Ronda de San Telmo-San Telmo" class="line lineL1"></line><line x1="40.37287675888572%" y1="77.12188783420746%" x2="40.69196149334573%" y2="83.0299777542246%" line="L1" id="L1-San Telmo-Ronda de San Telmo" class="line lineL1"></line><line x1="40.69196149334573%" y1="83.0299777542246%" x2="40.62494619400057%" y2="88.18624786407044%" line="L1" id="L1-Ronda de San Telmo-Diego de Cádiz" class="line lineL1"></line><line x1="40.62494619400057%" y1="88.18624786407044%" x2="39.548817219902055%" y2="94.5%" line="L1" id="L1-Diego de Cádiz-El Portal" class="line lineL1"></line></g><g id="C5" class="linegroup"><line x1="32.29078206508371%" y1="16.59274348853747%" x2="40.64836212408133%" y2="21.57783500090448%" line="C5" id="C5-Circunvalación-Federico García Lorca" class="line lineC5"></line><line x1="40.64836212408133%" y1="21.57783500090448%" x2="45.56390253789818%" y2="24.313741206906254%" line="C5" id="C5-Federico García Lorca-El Almendral" class="line lineC5"></line><line x1="45.56390253789818%" y1="24.313741206906254%" x2="52.626982982640726%" y2="30.939064002163757%" line="C5" id="C5-El Almendral-Hontoria" class="line lineC5"></line><line x1="52.626982982640726%" y1="30.939064002163757%" x2="56.528550638897634%" y2="35.93592407381481%" line="C5" id="C5-Hontoria-IFECA" class="line lineC5"></line><line x1="56.528550638897634%" y1="35.93592407381481%" x2="56.10106591242778%" y2="42.44133473339765%" line="C5" id="C5-IFECA-Feria" class="line lineC5"></line><line x1="56.10106591242778%" y1="42.44133473339765%" x2="49.88867198091723%" y2="51.41812005169617%" line="C5" id="C5-Feria-Catavinos" class="line lineC5"></line><line x1="49.88867198091723%" y1="51.41812005169617%" x2="47.403602743226884%" y2="68.47305069703809%" line="C5" id="C5-Catavinos-Minotauro" class="line lineC5"></line><line x1="47.403602743226884%" y1="68.47305069703809%" x2="52.64410413653619%" y2="77.40298336162206%" line="C5" id="C5-Minotauro-Medina Sidonia" class="line lineC5"></line><line x1="52.64410413653619%" y1="77.40298336162206%" x2="54.16407087948724%" y2="87.84416114001823%" line="C5" id="C5-Medina Sidonia-Parque Vallesequillo" class="line lineC5"></line><line x1="54.16407087948724%" y1="87.84416114001823%" x2="52.64410413653619%" y2="77.40298336162206%" line="C5" id="C5-Parque Vallesequillo-Medina Sidonia" class="line lineC5"></line><line x1="52.64410413653619%" y1="77.40298336162206%" x2="47.403602743226884%" y2="68.47305069703809%" line="C5" id="C5-Medina Sidonia-Minotauro" class="line lineC5"></line><line x1="47.403602743226884%" y1="68.47305069703809%" x2="49.88867198091723%" y2="51.41812005169617%" line="C5" id="C5-Minotauro-Catavinos" class="line lineC5"></line><line x1="49.88867198091723%" y1="51.41812005169617%" x2="56.10106591242778%" y2="42.44133473339765%" line="C5" id="C5-Catavinos-Feria" class="line lineC5"></line><line x1="56.10106591242778%" y1="42.44133473339765%" x2="56.528550638897634%" y2="35.93592407381481%" line="C5" id="C5-Feria-IFECA" class="line lineC5"></line><line x1="56.528550638897634%" y1="35.93592407381481%" x2="52.626982982640726%" y2="30.939064002163757%" line="C5" id="C5-IFECA-Hontoria" class="line lineC5"></line><line x1="52.626982982640726%" y1="30.939064002163757%" x2="45.56390253789818%" y2="24.313741206906254%" line="C5" id="C5-Hontoria-El Almendral" class="line lineC5"></line><line x1="45.56390253789818%" y1="24.313741206906254%" x2="40.64836212408133%" y2="21.57783500090448%" line="C5" id="C5-El Almendral-Federico García Lorca" class="line lineC5"></line><line x1="40.64836212408133%" y1="21.57783500090448%" x2="32.29078206508371%" y2="16.59274348853747%" line="C5" id="C5-Federico García Lorca-Circunvalación" class="line lineC5"></line></g><g id="L8" class="linegroup"><line x1="38.133701227298154%" y1="61.707903889415284%" x2="47.403602743226884%" y2="68.47305069703809%" line="L8" id="L8-Villamarta-Minotauro" class="line lineL8"></line><line x1="47.403602743226884%" y1="68.47305069703809%" x2="58.48205849294918%" y2="69.7193795933227%" line="L8" id="L8-Minotauro-El Retiro" class="line lineL8"></line><line x1="58.48205849294918%" y1="69.7193795933227%" x2="65.32455180938356%" y2="68.21105137888338%" line="L8" id="L8-El Retiro-La Consolación" class="line lineL8"></line><line x1="65.32455180938356%" y1="68.21105137888338%" x2="71.36789028972585%" y2="68.90939447437766%" line="L8" id="L8-La Consolación-Las Delicias" class="line lineL8"></line><line x1="71.36789028972585%" y1="68.90939447437766%" x2="85.15685640144262%" y2="64.66844375061437%" line="L8" id="L8-Las Delicias-La Pita" class="line lineL8"></line><line x1="85.15685640144262%" y1="64.66844375061437%" x2="89.78281760200906%" y2="65.82102023765823%" line="L8" id="L8-La Pita-Rotonda 6" class="line lineL8"></line><line x1="89.78281760200906%" y1="65.82102023765823%" x2="94.18259132541567%" y2="69.03999949788049%" line="L8" id="L8-Rotonda 6-Cementerio" class="line lineL8"></line><line x1="94.18259132541567%" y1="69.03999949788049%" x2="89.78281760200906%" y2="65.82102023765823%" line="L8" id="L8-Cementerio-Rotonda 6" class="line lineL8"></line><line x1="89.78281760200906%" y1="65.82102023765823%" x2="85.15685640144262%" y2="64.66844375061437%" line="L8" id="L8-Rotonda 6-La Pita" class="line lineL8"></line><line x1="85.15685640144262%" y1="64.66844375061437%" x2="71.36789028972585%" y2="68.90939447437766%" line="L8" id="L8-La Pita-Las Delicias" class="line lineL8"></line><line x1="71.36789028972585%" y1="68.90939447437766%" x2="65.32455180938356%" y2="68.21105137888338%" line="L8" id="L8-Las Delicias-La Consolación" class="line lineL8"></line><line x1="65.32455180938356%" y1="68.21105137888338%" x2="58.48205849294918%" y2="69.7193795933227%" line="L8" id="L8-La Consolación-El Retiro" class="line lineL8"></line><line x1="58.48205849294918%" y1="69.7193795933227%" x2="47.403602743226884%" y2="68.47305069703809%" line="L8" id="L8-El Retiro-Minotauro" class="line lineL8"></line><line x1="47.403602743226884%" y1="68.47305069703809%" x2="38.133701227298154%" y2="61.707903889415284%" line="L8" id="L8-Minotauro-Villamarta" class="line lineL8"></line></g><g id="L2" class="linegroup"><line x1="39.548817219902055%" y1="94.5%" x2="35.34392634772367%" y2="86.93534007521932%" line="L2" id="L2-El Portal-Blas Infante" class="line lineL2"></line><line x1="35.34392634772367%" y1="86.93534007521932%" x2="29.72418024196589%" y2="78.22522980342846%" line="L2" id="L2-Blas Infante-La Juventud" class="line lineL2"></line><line x1="29.72418024196589%" y1="78.22522980342846%" x2="27.02806455449636%" y2="74.50209543232054%" line="L2" id="L2-La Juventud-Consejo de Europa" class="line lineL2"></line><line x1="27.02806455449636%" y1="74.50209543232054%" x2="25.134010662932695%" y2="69.96536331901244%" line="L2" id="L2-Consejo de Europa-Cuatro Caminos" class="line lineL2"></line><line x1="25.134010662932695%" y1="69.96536331901244%" x2="27.02806455449636%" y2="74.50209543232054%" line="L2" id="L2-Cuatro Caminos-Consejo de Europa" class="line lineL2"></line><line x1="27.02806455449636%" y1="74.50209543232054%" x2="29.72418024196589%" y2="78.22522980342846%" line="L2" id="L2-Consejo de Europa-La Juventud" class="line lineL2"></line><line x1="29.72418024196589%" y1="78.22522980342846%" x2="35.34392634772367%" y2="86.93534007521932%" line="L2" id="L2-La Juventud-Blas Infante" class="line lineL2"></line><line x1="35.34392634772367%" y1="86.93534007521932%" x2="39.548817219902055%" y2="94.5%" line="L2" id="L2-Blas Infante-El Portal" class="line lineL2"></line></g><g id="E3" class="linegroup"><line x1="21.22629747237429%" y1="86.02606034557576%" x2="16.95377865441691%" y2="91.89838720384105%" line="E3" id="E3-UPACE-Av. de Italia" class="line lineE3"></line><line x1="16.95377865441691%" y1="91.89838720384105%" x2="15.147363965124619%" y2="83.50186661568281%" line="E3" id="E3-Av. de Italia-Finlandia" class="line lineE3"></line><line x1="15.147363965124619%" y1="83.50186661568281%" x2="21.22629747237429%" y2="86.02606034557576%" line="E3" id="E3-Finlandia-UPACE" class="line lineE3"></line></g><g id="L7" class="linegroup"><line x1="38.133701227298154%" y1="61.707903889415284%" x2="46.36993261669146%" y2="61.04033556972985%" line="L7" id="L7-Villamarta-Arcos" class="line lineL7"></line><line x1="46.36993261669146%" y1="61.04033556972985%" x2="58.36156661236908%" y2="60.87855362753334%" line="L7" id="L7-Arcos-Chapín" class="line lineL7"></line><line x1="58.36156661236908%" y1="60.87855362753334%" x2="65.72968281031233%" y2="60.018284568621844%" line="L7" id="L7-Chapín-Universidad" class="line lineL7"></line><line x1="65.72968281031233%" y1="60.018284568621844%" x2="73.35087363294559%" y2="55.70255672609825%" line="L7" id="L7-Universidad-Biarritz" class="line lineL7"></line><line x1="73.35087363294559%" y1="55.70255672609825%" x2="79.8017824544985%" y2="51.6576018628132%" line="L7" id="L7-Biarritz-Ciudad de los Niños" class="line lineL7"></line><line x1="79.8017824544985%" y1="51.6576018628132%" x2="84.81994104900087%" y2="49.68383411023657%" line="L7" id="L7-Ciudad de los Niños-El Motorista" class="line lineL7"></line><line x1="84.81994104900087%" y1="49.68383411023657%" x2="89.4303855562288%" y2="46.16399787670314%" line="L7" id="L7-El Motorista-Almunia" class="line lineL7"></line><line x1="89.4303855562288%" y1="46.16399787670314%" x2="94.5%" y2="43.2062704489594%" line="L7" id="L7-Almunia-Caulina" class="line lineL7"></line><line x1="94.5%" y1="43.2062704489594%" x2="89.4303855562288%" y2="46.16399787670314%" line="L7" id="L7-Caulina-Almunia" class="line lineL7"></line><line x1="89.4303855562288%" y1="46.16399787670314%" x2="84.81994104900087%" y2="49.68383411023657%" line="L7" id="L7-Almunia-El Motorista" class="line lineL7"></line><line x1="84.81994104900087%" y1="49.68383411023657%" x2="79.8017824544985%" y2="51.6576018628132%" line="L7" id="L7-El Motorista-Ciudad de los Niños" class="line lineL7"></line><line x1="79.8017824544985%" y1="51.6576018628132%" x2="73.35087363294559%" y2="55.70255672609825%" line="L7" id="L7-Ciudad de los Niños-Biarritz" class="line lineL7"></line><line x1="73.35087363294559%" y1="55.70255672609825%" x2="65.72968281031233%" y2="60.018284568621844%" line="L7" id="L7-Biarritz-Universidad" class="line lineL7"></line><line x1="65.72968281031233%" y1="60.018284568621844%" x2="58.36156661236908%" y2="60.87855362753334%" line="L7" id="L7-Universidad-Chapín" class="line lineL7"></line><line x1="58.36156661236908%" y1="60.87855362753334%" x2="46.36993261669146%" y2="61.04033556972985%" line="L7" id="L7-Chapín-Arcos" class="line lineL7"></line><line x1="46.36993261669146%" y1="61.04033556972985%" x2="47.403602743226884%" y2="68.47305069703809%" line="L7" id="L7-Arcos-Minotauro" class="line lineL7"></line><line x1="47.403602743226884%" y1="68.47305069703809%" x2="38.133701227298154%" y2="61.707903889415284%" line="L7" id="L7-Minotauro-Villamarta" class="line lineL7"></line></g><g id="E6" class="linegroup"><line x1="68.2346426433967%" y1="17.06102586365854%" x2="71.39370074678186%" y2="22.427691666881785%" line="E6" id="E6-Corte Inglés-La Pepa" class="line lineE6"></line><line x1="71.39370074678186%" y1="22.427691666881785%" x2="81.1882083316189%" y2="20.772317808202406%" line="E6" id="E6-La Pepa-San José Obrero" class="line lineE6"></line><line x1="81.1882083316189%" y1="20.772317808202406%" x2="87.00996195780532%" y2="24.969054145854034%" line="E6" id="E6-San José Obrero-Setefilla" class="line lineE6"></line><line x1="87.00996195780532%" y1="24.969054145854034%" x2="83.67667677922537%" y2="29.62120677695254%" line="E6" id="E6-Setefilla-Manuel F. Cruz" class="line lineE6"></line><line x1="83.67667677922537%" y1="29.62120677695254%" x2="86.3417185380783%" y2="36.52547520830356%" line="E6" id="E6-Manuel F. Cruz-Av. La Granja" class="line lineE6"></line><line x1="86.3417185380783%" y1="36.52547520830356%" x2="89.4303855562288%" y2="46.16399787670314%" line="E6" id="E6-Av. La Granja-Almunia" class="line lineE6"></line><line x1="89.4303855562288%" y1="46.16399787670314%" x2="93.98721162936927%" y2="50.20185338368389%" line="E6" id="E6-Almunia-Afanas" class="line lineE6"></line><line x1="93.98721162936927%" y1="50.20185338368389%" x2="91.83431695864209%" y2="54.878035187583095%" line="E6" id="E6-Afanas-La Marquesa" class="line lineE6"></line><line x1="91.83431695864209%" y1="54.878035187583095%" x2="89.78281760200906%" y2="65.82102023765823%" line="E6" id="E6-La Marquesa-Rotonda 6" class="line lineE6"></line><line x1="89.78281760200906%" y1="65.82102023765823%" x2="91.83431695864209%" y2="54.878035187583095%" line="E6" id="E6-Rotonda 6-La Marquesa" class="line lineE6"></line><line x1="91.83431695864209%" y1="54.878035187583095%" x2="93.98721162936927%" y2="50.20185338368389%" line="E6" id="E6-La Marquesa-Afanas" class="line lineE6"></line><line x1="93.98721162936927%" y1="50.20185338368389%" x2="94.5%" y2="43.2062704489594%" line="E6" id="E6-Afanas-Caulina" class="line lineE6"></line><line x1="94.5%" y1="43.2062704489594%" x2="93.67193617114124%" y2="36.16461421261856%" line="E6" id="E6-Caulina-Ctra. Guadalcacín" class="line lineE6"></line><line x1="93.67193617114124%" y1="36.16461421261856%" x2="87.00996195780532%" y2="24.969054145854034%" line="E6" id="E6-Ctra. Guadalcacín-Setefilla" class="line lineE6"></line><line x1="87.00996195780532%" y1="24.969054145854034%" x2="81.1882083316189%" y2="20.772317808202406%" line="E6" id="E6-Setefilla-San José Obrero" class="line lineE6"></line><line x1="81.1882083316189%" y1="20.772317808202406%" x2="71.39370074678186%" y2="22.427691666881785%" line="E6" id="E6-San José Obrero-La Pepa" class="line lineE6"></line><line x1="71.39370074678186%" y1="22.427691666881785%" x2="68.2346426433967%" y2="17.06102586365854%" line="E6" id="E6-La Pepa-Corte Inglés" class="line lineE6"></line></g><g id="C3" class="linegroup"><line x1="25.134010662932695%" y1="69.96536331901244%" x2="23.25416100721487%" y2="59.30530430532406%" line="C3" id="C3-Cuatro Caminos-Puerta de Rota" class="line lineC3"></line><line x1="23.25416100721487%" y1="59.30530430532406%" x2="22.14622168652717%" y2="51.9895058344132%" line="C3" id="C3-Puerta de Rota-Luis Vives" class="line lineC3"></line><line x1="22.14622168652717%" y1="51.9895058344132%" x2="27.555125260803027%" y2="48.89428357163676%" line="C3" id="C3-Luis Vives-Santiago" class="line lineC3"></line><line x1="27.555125260803027%" y1="48.89428357163676%" x2="32.27873232123771%" y2="50.35839549657182%" line="C3" id="C3-Santiago-Porvera" class="line lineC3"></line><line x1="32.27873232123771%" y1="50.35839549657182%" x2="35.798150943006796%" y2="53.59562201776214%" line="C3" id="C3-Porvera-Alameda Cristina" class="line lineC3"></line><line x1="35.798150943006796%" y1="53.59562201776214%" x2="38.26502236940382%" y2="45.51904412996167%" line="C3" id="C3-Alameda Cristina-Sevilla" class="line lineC3"></line><line x1="38.26502236940382%" y1="45.51904412996167%" x2="49.88867198091723%" y2="51.41812005169617%" line="C3" id="C3-Sevilla-Catavinos" class="line lineC3"></line><line x1="49.88867198091723%" y1="51.41812005169617%" x2="47.403602743226884%" y2="68.47305069703809%" line="C3" id="C3-Catavinos-Minotauro" class="line lineC3"></line><line x1="47.403602743226884%" y1="68.47305069703809%" x2="45.37989392047124%" y2="72.20597205939157%" line="C3" id="C3-Minotauro-Madre de Dios" class="line lineC3"></line><line x1="45.37989392047124%" y1="72.20597205939157%" x2="40.37287675888572%" y2="77.12188783420746%" line="C3" id="C3-Madre de Dios-San Telmo" class="line lineC3"></line><line x1="40.37287675888572%" y1="77.12188783420746%" x2="32.22284248905749%" y2="70.882075471145%" line="C3" id="C3-San Telmo-Plaza del Carbón" class="line lineC3"></line><line x1="32.22284248905749%" y1="70.882075471145%" x2="25.134010662932695%" y2="69.96536331901244%" line="C3" id="C3-Plaza del Carbón-Cuatro Caminos" class="line lineC3"></line></g><circle cx="18.101115626019716%" cy="76.2000136305413%" r="3" id="Puerta del Sur" class="station"></circle><text x="19.101115626019716%" y="77.2000136305413%" id="tPuerta del Sur" class="stopText">Puerta del Sur</text><circle cx="21.22629747237429%" cy="86.02606034557576%" r="3" id="UPACE" class="station"></circle><text x="22.22629747237429%" y="87.02606034557576%" id="tUPACE" class="stopText">UPACE</text><circle cx="30.046950125740068%" cy="92.07730004866387%" r="3" id="Hospital FREMAP" class="station"></circle><text x="31.046950125740068%" y="93.07730004866387%" id="tHospital FREMAP" class="stopText">Hospital FREMAP</text><circle cx="39.548817219902055%" cy="94.5%" r="3" id="El Portal" class="station"></circle><text x="40.548817219902055%" y="95.5%" id="tEl Portal" class="stopText">El Portal</text><circle cx="54.16407087948724%" cy="87.84416114001823%" r="3" id="Parque Vallesequillo" class="station"></circle><text x="55.16407087948724%" y="88.84416114001823%" id="tParque Vallesequillo" class="stopText">Parque Vallesequillo</text><circle cx="70.2157421949607%" cy="89.57040416912409%" r="3" id="Timanfaya" class="station"></circle><text x="71.2157421949607%" y="90.57040416912409%" id="tTimanfaya" class="stopText">Timanfaya</text><circle cx="79.73314769977927%" cy="86.10042509158583%" r="3" id="Rotonda 4" class="station"></circle><text x="80.73314769977927%" y="87.10042509158583%" id="tRotonda 4" class="stopText">Rotonda 4</text><circle cx="89.78281760200906%" cy="65.82102023765823%" r="3" id="Rotonda 6" class="station"></circle><text x="90.78281760200906%" y="66.82102023765823%" id="tRotonda 6" class="stopText">Rotonda 6</text><circle cx="84.81994104900087%" cy="49.68383411023657%" r="3" id="El Motorista" class="station"></circle><text x="85.81994104900087%" y="50.68383411023657%" id="tEl Motorista" class="stopText">El Motorista</text><circle cx="79.66102042589434%" cy="37.694530148243736%" r="3" id="La Granja" class="station"></circle><text x="80.66102042589434%" y="38.694530148243736%" id="tLa Granja" class="stopText">La Granja</text><circle cx="71.39370074678186%" cy="22.427691666881785%" r="3" id="La Pepa" class="station"></circle><text x="72.39370074678186%" y="23.427691666881785%" id="tLa Pepa" class="stopText">La Pepa</text><circle cx="68.2346426433967%" cy="17.06102586365854%" r="3" id="Corte Inglés" class="station"></circle><text x="69.2346426433967%" y="18.06102586365854%" id="tCorte Inglés" class="stopText">Corte Inglés</text><circle cx="51.13608196878187%" cy="10.568904832773127%" r="3" id="Las Buganvillas" class="station"></circle><text x="52.13608196878187%" y="11.568904832773127%" id="tLas Buganvillas" class="stopText">Las Buganvillas</text><circle cx="32.29078206508371%" cy="16.59274348853747%" r="3" id="Circunvalación" class="station"></circle><text x="33.29078206508371%" y="17.59274348853747%" id="tCircunvalación" class="stopText">Circunvalación</text><circle cx="23.193703204633103%" cy="23.769877218765167%" r="3" id="Hospital" class="station"></circle><text x="24.193703204633103%" y="24.769877218765167%" id="tHospital" class="stopText">Hospital</text><circle cx="17.26922081902217%" cy="30.283996635838466%" r="3" id="San Juan de Dios" class="station"></circle><text x="18.26922081902217%" y="31.283996635838466%" id="tSan Juan de Dios" class="stopText">San Juan de Dios</text><circle cx="12.634406092440049%" cy="52.99261729579415%" r="3" id="Picadueñas" class="station"></circle><text x="13.634406092440049%" y="53.99261729579415%" id="tPicadueñas" class="stopText">Picadueñas</text><circle cx="25.134010662932695%" cy="69.96536331901244%" r="3" id="Cuatro Caminos" class="station"></circle><text x="26.134010662932695%" y="70.96536331901244%" id="tCuatro Caminos" class="stopText">Cuatro Caminos</text><circle cx="23.25416100721487%" cy="59.30530430532406%" r="3" id="Puerta de Rota" class="station"></circle><text x="24.25416100721487%" y="60.30530430532406%" id="tPuerta de Rota" class="stopText">Puerta de Rota</text><circle cx="22.14622168652717%" cy="51.9895058344132%" r="3" id="Luis Vives" class="station"></circle><text x="23.14622168652717%" y="52.9895058344132%" id="tLuis Vives" class="stopText">Luis Vives</text><circle cx="27.555125260803027%" cy="48.89428357163676%" r="3" id="Santiago" class="station"></circle><text x="28.555125260803027%" y="49.89428357163676%" id="tSantiago" class="stopText">Santiago</text><circle cx="28.177691144702806%" cy="36.34988114051345%" r="3" id="La Plata" class="station"></circle><text x="29.177691144702806%" y="37.34988114051345%" id="tLa Plata" class="stopText">La Plata</text><circle cx="34.391330157519924%" cy="31.069055905023927%" r="3" id="La Unión" class="station"></circle><text x="35.391330157519924%" y="32.06905590502393%" id="tLa Unión" class="stopText">La Unión</text><circle cx="40.64836212408133%" cy="21.57783500090448%" r="3" id="Federico García Lorca" class="station"></circle><text x="41.64836212408133%" y="22.57783500090448%" id="tFederico García Lorca" class="stopText">Federico García Lorca</text><circle cx="45.56390253789818%" cy="24.313741206906254%" r="3" id="El Almendral" class="station"></circle><text x="46.56390253789818%" y="25.313741206906254%" id="tEl Almendral" class="stopText">El Almendral</text><circle cx="52.626982982640726%" cy="30.939064002163757%" r="3" id="Hontoria" class="station"></circle><text x="53.626982982640726%" y="31.939064002163757%" id="tHontoria" class="stopText">Hontoria</text><circle cx="56.528550638897634%" cy="35.93592407381481%" r="3" id="IFECA" class="station"></circle><text x="57.528550638897634%" y="36.93592407381481%" id="tIFECA" class="stopText">IFECA</text><circle cx="49.88867198091723%" cy="51.41812005169617%" r="3" id="Catavinos" class="station"></circle><text x="50.88867198091723%" y="52.41812005169617%" id="tCatavinos" class="stopText">Catavinos</text><circle cx="47.403602743226884%" cy="68.47305069703809%" r="3" id="Minotauro" class="station"></circle><text x="48.403602743226884%" y="69.47305069703809%" id="tMinotauro" class="stopText">Minotauro</text><circle cx="45.37989392047124%" cy="72.20597205939157%" r="3" id="Madre de Dios" class="station"></circle><text x="46.37989392047124%" y="73.20597205939157%" id="tMadre de Dios" class="stopText">Madre de Dios</text><circle cx="40.37287675888572%" cy="77.12188783420746%" r="3" id="San Telmo" class="station"></circle><text x="41.37287675888572%" y="78.12188783420746%" id="tSan Telmo" class="stopText">San Telmo</text><circle cx="32.22284248905749%" cy="70.882075471145%" r="3" id="Plaza del Carbón" class="station"></circle><text x="33.22284248905749%" y="71.882075471145%" id="tPlaza del Carbón" class="stopText">Plaza del Carbón</text><circle cx="35.798150943006796%" cy="53.59562201776214%" r="3" id="Alameda Cristina" class="station"></circle><text x="36.798150943006796%" y="54.59562201776214%" id="tAlameda Cristina" class="stopText">Alameda Cristina</text><circle cx="38.26502236940382%" cy="45.51904412996167%" r="3" id="Sevilla" class="station"></circle><text x="39.26502236940382%" y="46.51904412996167%" id="tSevilla" class="stopText">Sevilla</text><circle cx="56.10106591242778%" cy="42.44133473339765%" r="3" id="Feria" class="station"></circle><text x="57.10106591242778%" y="43.44133473339765%" id="tFeria" class="stopText">Feria</text><circle cx="52.64410413653619%" cy="77.40298336162206%" r="3" id="Medina Sidonia" class="station"></circle><text x="53.64410413653619%" y="78.40298336162206%" id="tMedina Sidonia" class="stopText">Medina Sidonia</text><circle cx="32.27873232123771%" cy="50.35839549657182%" r="3" id="Porvera" class="station"></circle><text x="33.27873232123771%" y="51.35839549657182%" id="tPorvera" class="stopText">Porvera</text><circle cx="40.62494619400057%" cy="88.18624786407044%" r="3" id="Diego de Cádiz" class="station"></circle><text x="41.62494619400057%" y="89.18624786407044%" id="tDiego de Cádiz" class="stopText">Diego de Cádiz</text><circle cx="40.69196149334573%" cy="83.0299777542246%" r="3" id="Ronda de San Telmo" class="station"></circle><text x="41.69196149334573%" y="84.0299777542246%" id="tRonda de San Telmo" class="stopText">Ronda de San Telmo</text><circle cx="35.34392634772367%" cy="86.93534007521932%" r="3" id="Blas Infante" class="station"></circle><text x="36.34392634772367%" y="87.93534007521932%" id="tBlas Infante" class="stopText">Blas Infante</text><circle cx="29.72418024196589%" cy="78.22522980342846%" r="3" id="La Juventud" class="station"></circle><text x="30.72418024196589%" y="79.22522980342846%" id="tLa Juventud" class="stopText">La Juventud</text><circle cx="27.02806455449636%" cy="74.50209543232054%" r="3" id="Consejo de Europa" class="station"></circle><text x="28.02806455449636%" y="75.50209543232054%" id="tConsejo de Europa" class="stopText">Consejo de Europa</text><circle cx="36.662842782763384%" cy="40.392735457115485%" r="3" id="Escuela de Arte Ecuestre" class="station"></circle><text x="37.662842782763384%" y="41.392735457115485%" id="tEscuela de Arte Ecuestre" class="stopText">Escuela de Arte Ecuestre</text><circle cx="41.284719389492665%" cy="34.32453226239013%" r="3" id="Duque de Abrantes" class="station"></circle><text x="42.284719389492665%" y="35.32453226239013%" id="tDuque de Abrantes" class="stopText">Duque de Abrantes</text><circle cx="48.17692973013849%" cy="18.367023509670368%" r="3" id="Donantes de Sangre" class="station"></circle><text x="49.17692973013849%" y="19.367023509670368%" id="tDonantes de Sangre" class="stopText">Donantes de Sangre</text><circle cx="45.63436395007627%" cy="39.567606067573486%" r="3" id="Plaza del Caballo" class="station"></circle><text x="46.63436395007627%" y="40.567606067573486%" id="tPlaza del Caballo" class="stopText">Plaza del Caballo</text><circle cx="58.961732157334644%" cy="25.363571694145204%" r="3" id="Av. Andalucía" class="station"></circle><text x="59.961732157334644%" y="26.363571694145204%" id="tAv. Andalucía" class="stopText">Av. Andalucía</text><circle cx="66.82279302494301%" cy="37.60365210272299%" r="3" id="Av. Europa" class="station"></circle><text x="67.82279302494301%" y="38.60365210272299%" id="tAv. Europa" class="stopText">Av. Europa</text><circle cx="86.3417185380783%" cy="36.52547520830356%" r="3" id="Av. La Granja" class="station"></circle><text x="87.3417185380783%" y="37.52547520830356%" id="tAv. La Granja" class="stopText">Av. La Granja</text><circle cx="38.133701227298154%" cy="61.707903889415284%" r="3" id="Villamarta" class="station"></circle><text x="39.133701227298154%" y="62.707903889415284%" id="tVillamarta" class="stopText">Villamarta</text><circle cx="46.36993261669146%" cy="61.04033556972985%" r="3" id="Arcos" class="station"></circle><text x="47.36993261669146%" y="62.04033556972985%" id="tArcos" class="stopText">Arcos</text><circle cx="58.36156661236908%" cy="60.87855362753334%" r="3" id="Chapín" class="station"></circle><text x="59.36156661236908%" y="61.87855362753334%" id="tChapín" class="stopText">Chapín</text><circle cx="65.72968281031233%" cy="60.018284568621844%" r="3" id="Universidad" class="station"></circle><text x="66.72968281031233%" y="61.018284568621844%" id="tUniversidad" class="stopText">Universidad</text><circle cx="73.35087363294559%" cy="55.70255672609825%" r="3" id="Biarritz" class="station"></circle><text x="74.35087363294559%" y="56.70255672609825%" id="tBiarritz" class="stopText">Biarritz</text><circle cx="79.8017824544985%" cy="51.6576018628132%" r="3" id="Ciudad de los Niños" class="station"></circle><text x="80.8017824544985%" y="52.6576018628132%" id="tCiudad de los Niños" class="stopText">Ciudad de los Niños</text><circle cx="89.4303855562288%" cy="46.16399787670314%" r="3" id="Almunia" class="station"></circle><text x="90.4303855562288%" y="47.16399787670314%" id="tAlmunia" class="stopText">Almunia</text><circle cx="94.5%" cy="43.2062704489594%" r="3" id="Caulina" class="station"></circle><text x="95.5%" y="44.2062704489594%" id="tCaulina" class="stopText">Caulina</text><circle cx="58.48205849294918%" cy="69.7193795933227%" r="3" id="El Retiro" class="station"></circle><text x="59.48205849294918%" y="70.7193795933227%" id="tEl Retiro" class="stopText">El Retiro</text><circle cx="65.32455180938356%" cy="68.21105137888338%" r="3" id="La Consolación" class="station"></circle><text x="66.32455180938356%" y="69.21105137888338%" id="tLa Consolación" class="stopText">La Consolación</text><circle cx="71.36789028972585%" cy="68.90939447437766%" r="3" id="Las Delicias" class="station"></circle><text x="72.36789028972585%" y="69.90939447437766%" id="tLas Delicias" class="stopText">Las Delicias</text><circle cx="85.15685640144262%" cy="64.66844375061437%" r="3" id="La Pita" class="station"></circle><text x="86.15685640144262%" y="65.66844375061437%" id="tLa Pita" class="stopText">La Pita</text><circle cx="94.18259132541567%" cy="69.03999949788049%" r="3" id="Cementerio" class="station"></circle><text x="95.18259132541567%" y="70.03999949788049%" id="tCementerio" class="stopText">Cementerio</text><circle cx="51.82062559002512%" cy="77.68677477299894%" r="3" id="Vallesequillo" class="station"></circle><text x="52.82062559002512%" y="78.68677477299894%" id="tVallesequillo" class="stopText">Vallesequillo</text><circle cx="45.76203011896624%" cy="87.38645322874241%" r="3" id="Moreno Mendoza" class="station"></circle><text x="46.76203011896624%" y="88.38645322874241%" id="tMoreno Mendoza" class="stopText">Moreno Mendoza</text><circle cx="34.504297853420866%" cy="78.2392037634849%" r="3" id="Azorín" class="station"></circle><text x="35.504297853420866%" y="79.2392037634849%" id="tAzorín" class="stopText">Azorín</text><circle cx="25.308479796784308%" cy="84.16521437588932%" r="3" id="Caparrós" class="station"></circle><text x="26.308479796784308%" y="85.16521437588932%" id="tCaparrós" class="stopText">Caparrós</text><circle cx="30.814031833702458%" cy="86.02594963764507%" r="3" id="La igualdad" class="station"></circle><text x="31.814031833702458%" y="87.02594963764507%" id="tLa igualdad" class="stopText">La igualdad</text><circle cx="16.95377865441691%" cy="91.89838720384105%" r="3" id="Av. de Italia" class="station"></circle><text x="17.95377865441691%" y="92.89838720384105%" id="tAv. de Italia" class="stopText">Av. de Italia</text><circle cx="15.147363965124619%" cy="83.50186661568281%" r="3" id="Finlandia" class="station"></circle><text x="16.14736396512462%" y="84.50186661568281%" id="tFinlandia" class="stopText">Finlandia</text><circle cx="21.6655903819461%" cy="41.046346828581356%" r="3" id="Zoo" class="station"></circle><text x="22.6655903819461%" y="42.046346828581356%" id="tZoo" class="stopText">Zoo</text><circle cx="18.862499334147245%" cy="35.265211452598706%" r="3" id="Rocio" class="station"></circle><text x="19.862499334147245%" y="36.265211452598706%" id="tRocio" class="stopText">Rocio</text><circle cx="4.5%" cy="26.25757492557478%" r="3" id="Luz Shopping (i)" class="station"></circle><text x="5.5%" y="27.25757492557478%" id="tLuz Shopping (i)" class="stopText">Luz Shopping (i)</text><circle cx="4.920902740161169%" cy="32.929721918111454%" r="3" id="Luz Shopping (ii)" class="station"></circle><text x="5.920902740161169%" y="33.929721918111454%" id="tLuz Shopping (ii)" class="stopText">Luz Shopping (ii)</text><circle cx="9.208897232365947%" cy="35.6939346812646%" r="3" id="Area Sur" class="station"></circle><text x="10.208897232365947%" y="36.6939346812646%" id="tArea Sur" class="stopText">Area Sur</text><circle cx="38.369154484582694%" cy="28.51843873643312%" r="3" id="Plaza de las Marinas" class="station"></circle><text x="39.369154484582694%" y="29.51843873643312%" id="tPlaza de las Marinas" class="stopText">Plaza de las Marinas</text><circle cx="43.493857146298694%" cy="13.964197642646788%" r="3" id="Av. del Tamarix" class="station"></circle><text x="44.493857146298694%" y="14.964197642646788%" id="tAv. del Tamarix" class="stopText">Av. del Tamarix</text><circle cx="53.0907420183144%" cy="19.12620419998857%" r="3" id="Albariza" class="station"></circle><text x="54.0907420183144%" y="20.12620419998857%" id="tAlbariza" class="stopText">Albariza</text><circle cx="81.1882083316189%" cy="20.772317808202406%" r="3" id="San José Obrero" class="station"></circle><text x="82.1882083316189%" y="21.772317808202406%" id="tSan José Obrero" class="stopText">San José Obrero</text><circle cx="87.00996195780532%" cy="24.969054145854034%" r="3" id="Setefilla" class="station"></circle><text x="88.00996195780532%" y="25.969054145854034%" id="tSetefilla" class="stopText">Setefilla</text><circle cx="83.67667677922537%" cy="29.62120677695254%" r="3" id="Manuel F. Cruz" class="station"></circle><text x="84.67667677922537%" y="30.62120677695254%" id="tManuel F. Cruz" class="stopText">Manuel F. Cruz</text><circle cx="91.83431695864209%" cy="54.878035187583095%" r="3" id="La Marquesa" class="station"></circle><text x="92.83431695864209%" y="55.878035187583095%" id="tLa Marquesa" class="stopText">La Marquesa</text><circle cx="93.98721162936927%" cy="50.20185338368389%" r="3" id="Afanas" class="station"></circle><text x="94.98721162936927%" y="51.20185338368389%" id="tAfanas" class="stopText">Afanas</text><circle cx="93.67193617114124%" cy="36.16461421261856%" r="3" id="Ctra. Guadalcacín" class="station"></circle><text x="94.67193617114124%" y="37.16461421261856%" id="tCtra. Guadalcacín" class="stopText">Ctra. Guadalcacín</text><circle cx="65.6775940101414%" cy="43.93295226524029%" r="3" id="Palacio Municipal de Deportes" class="station"></circle><text x="66.6775940101414%" y="44.93295226524029%" id="tPalacio Municipal de Deportes" class="stopText">Palacio Municipal de Deportes</text><circle cx="71.39680120846637%" cy="51.41708040396388%" r="3" id="Lola Flores" class="station"></circle><text x="72.39680120846637%" y="52.41708040396388%" id="tLola Flores" class="stopText">Lola Flores</text><circle cx="74.4622177005322%" cy="61.65625390557609%" r="3" id="Olivar de Rivero" class="station"></circle><text x="75.4622177005322%" y="62.65625390557609%" id="tOlivar de Rivero" class="stopText">Olivar de Rivero</text><circle cx="83.63212822639474%" cy="59.58069245760845%" r="3" id="Av. Taginaste" class="station"></circle><text x="84.63212822639474%" y="60.58069245760845%" id="tAv. Taginaste" class="stopText">Av. Taginaste</text><circle cx="58.53639029607866%" cy="75.51968470965424%" r="3" id="Parque Atlántico" class="station"></circle><text x="59.53639029607866%" y="76.51968470965424%" id="tParque Atlántico" class="stopText">Parque Atlántico</text><circle cx="64.17853608795764%" cy="80.14078395429996%" r="3" id="Club Nazaret" class="station"></circle><text x="65.17853608795764%" y="81.14078395429996%" id="tClub Nazaret" class="stopText">Club Nazaret</text><circle cx="72.66227600516804%" cy="83.60361944035024%" r="3" id="Av. Nazaret" class="station"></circle><text x="73.66227600516804%" y="84.60361944035024%" id="tAv. Nazaret" class="stopText">Av. Nazaret</text><circle cx="80.59789636876842%" cy="77.82727649960437%" r="3" id="La Canaleja" class="station"></circle><text x="81.59789636876842%" y="78.82727649960437%" id="tLa Canaleja" class="stopText">La Canaleja</text><circle cx="71.23165191106577%" cy="74.73141772965982%" r="3" id="Plaza Macedonia" class="station"></circle><text x="72.23165191106577%" y="75.73141772965982%" id="tPlaza Macedonia" class="stopText">Plaza Macedonia</text><circle cx="62.77414841307688%" cy="74.24008599755003%" r="3" id="Tartessos" class="station"></circle><text x="63.77414841307688%" y="75.24008599755003%" id="tTartessos" class="stopText">Tartessos</text><circle cx="62.953571068281164%" cy="29.60289957663921%" r="3" id="El Altillo" class="station"></circle><text x="63.953571068281164%" y="30.60289957663921%" id="tEl Altillo" class="stopText">El Altillo</text><circle cx="77.03907863143401%" cy="4.5%" r="3" id="Pozo Albero" class="station"></circle><text x="78.03907863143401%" y="5.5%" id="tPozo Albero" class="stopText">Pozo Albero</text><circle cx="35.99684805034386%" cy="62.29497762803238%" r="3" id="Gallo Azul" class="station"></circle><text x="36.99684805034386%" y="63.29497762803238%" id="tGallo Azul" class="stopText">Gallo Azul</text><circle cx="33.541525282828495%" cy="64.2014350513179%" r="3" id="Arenal" class="station"></circle><text x="34.541525282828495%" y="65.2014350513179%" id="tArenal" class="stopText" style="display: none;">Arenal</text><circle cx="31.607836929669556%" cy="67.34819394156216%" r="3" id="Alameda Vieja" class="station"></circle><text x="32.60783692966956%" y="68.34819394156216%" id="tAlameda Vieja" class="stopText">Alameda Vieja</text></svg>