<svg xmlns="http://www.w3.org/2000/svg" viewBox="0 0 1121.33 977.01"><defs><style>.cls-1,.cls-10,.cls-11,.cls-12,.cls-13,.cls-14,.cls-15,.cls-16,.cls-17,.cls-18,.cls-2,.cls-3,.cls-4,.cls-5,.cls-6,.cls-7,.cls-8,.cls-9{fill:none;stroke-linecap:round;stroke-linejoin:round;stroke-width:4px;}.cls-1{stroke:#f07e20;}.cls-2{stroke:#7f7f80;}.cls-3{stroke:#82853a;}.cls-4{stroke:#f07f19;}.cls-5{stroke:#8e67a9;}.cls-6{stroke:#39747c;}.cls-7{stroke:#2ab8cb;}.cls-8{stroke:#2ba037;}.cls-9{stroke:#b85b17;}.cls-10{stroke:#86b4a9;}.cls-11{stroke:#bcbd20;}.cls-12{stroke:#ffd94a;}.cls-13{stroke:#f9b879;}.cls-14{stroke:#32a250;}.cls-15{stroke:#acd18d;}.cls-16{stroke:#9ad5e1;}.cls-17{stroke:#d72728;}.cls-18{stroke:#d379b0;}.cls-19,.cls-32,.cls-34,.cls-49,.cls-50,.cls-52,.cls-53{fill:#fff;}.cls-19{stroke:#1e1e1c;stroke-miterlimit:10;stroke-width:0.99px;}.cls-20{fill:#010101;}.cls-21,.cls-26,.cls-36,.cls-45,.cls-50{font-size:10px;}.cls-21,.cls-26,.cls-36,.cls-45,.cls-46,.cls-76{fill:#1d1d1b;}.cls-21,.cls-26,.cls-34,.cls-49,.cls-50,.cls-52,.cls-53{font-family:HelveticaNeue-BoldCond, Helvetica Neue;font-weight:700;}.cls-22{letter-spacing:-0.02em;}.cls-23{letter-spacing:0em;}.cls-24{letter-spacing:-0.07em;}.cls-25{letter-spacing:-0.05em;}.cls-26,.cls-29{letter-spacing:-0.02em;}.cls-27{letter-spacing:0em;}.cls-28{letter-spacing:-0.02em;}.cls-30{letter-spacing:-0.02em;}.cls-31{letter-spacing:-0.04em;}.cls-33{fill:#d37ab0;}.cls-34{font-size:19.61px;}.cls-35{fill:#d72728;}.cls-36,.cls-45{font-family:HelveticaNeue-Condensed, Helvetica Neue;}.cls-37{letter-spacing:0.01em;}.cls-38{letter-spacing:-0.04em;}.cls-39{letter-spacing:-0.02em;}.cls-40{letter-spacing:0.01em;}.cls-41{letter-spacing:-0.05em;}.cls-42,.cls-45{letter-spacing:-0.07em;}.cls-43{letter-spacing:-0.11em;}.cls-44{letter-spacing:0.02em;}.cls-46{font-size:54.92px;font-family:HelveticaNeue-MediumCondObl, Helvetica Neue;}.cls-47{font-family:HelveticaNeue-BlackCondObl, Helvetica Neue;}.cls-48{fill:#f9b87a;}.cls-49{font-size:16.84px;}.cls-51{fill:#34a251;}.cls-52{font-size:15.5px;}.cls-53{font-size:10.12px;}.cls-54{fill:#9ad5e1;}.cls-55{letter-spacing:-0.02em;}.cls-56{fill:#f07f19;}.cls-57{fill:#828539;}.cls-58{fill:#7f7f80;}.cls-59{letter-spacing:-0.02em;}.cls-60{letter-spacing:-0.02em;}.cls-61{fill:#ffd94a;}.cls-62{fill:#f9b879;}.cls-63{letter-spacing:0em;}.cls-64{fill:#2ba037;}.cls-65{letter-spacing:-0.07em;}.cls-66{fill:#acd18d;}.cls-67{letter-spacing:-0.07em;}.cls-68{fill:#bcbd1e;}.cls-69{letter-spacing:-0.04em;}.cls-70{fill:#86b4a9;}.cls-71{fill:#b85c17;}.cls-72{fill:#ef7e23;}.cls-73{fill:#29b8cb;}.cls-74{fill:#39747c;}.cls-75{fill:#8e67a9;}</style></defs><title>MapaWeb</title><g id="LINEAS"><g id="E8"><polygon class="cls-1" points="675.33 702.01 675.33 774.01 826.33 775.01 826.33 702.01 753.33 702.01 675.33 702.01"/><line class="cls-1" x1="675.33" y1="775.01" x2="766.33" y2="701.01"/></g><g id="E7"><polyline class="cls-2" points="680.33 360.01 681.33 464.01 681.33 520.01 765.33 578.01 826.33 579.01 826.33 521.01 759.33 465.01 681.33 465.01"/></g><g id="E6"><polyline class="cls-3" points="838.33 521.01 988.33 521.01 910.33 459.01 910.33 359.01 987.33 300.01 832.33 181.01 598.33 181.01"/><line class="cls-3" x1="838.33" y1="579.01" x2="838.33" y2="521.01"/><polyline class="cls-3" points="987.33 360.01 987.33 459.01 988.33 521.01"/><line class="cls-3" x1="987.33" y1="360.01" x2="987.33" y2="300.01"/></g><g id="E5"><polyline class="cls-4" points="255.33 240.87 361.33 241.01 518.33 241.01 596.33 241.01 675.33 241.01"/></g><g id="E4"><polyline class="cls-5" points="98.33 241.01 98.33 300.01 176.33 241.01 98.33 241.01"/><polyline class="cls-5" points="249.33 521.01 249.33 294.01 177.33 241.01"/></g><g id="E3"><polygon class="cls-6" points="98.33 836.01 176.33 899.01 98.33 899.01 98.33 836.01"/></g><g id="E2"><polygon class="cls-7" points="440.33 892.01 518.33 836.01 443.33 836.01 443.33 774.01 255.33 775.01 255.33 892.01 440.33 892.01"/></g><g id="E1"><polyline class="cls-8" points="590.33 892.01 590.33 775.01 521.33 697.01"/></g><g id="L8"><polyline class="cls-9" points="915.33 644.01 839.33 584.01 765.33 583.01 765.33 697.01 677.33 697.01 588.33 697.01 512.33 629.01 512.33 580.01"/></g><g id="L7"><polyline class="cls-10" points="518.33 579.01 675.33 579.01 675.33 459.01 988.33 459.01"/><polyline class="cls-10" points="518.33 579.01 518.33 626.01 597.33 698.01 675.33 626.01 675.33 579.01"/></g><g id="L6"><polyline class="cls-11" points="602.33 308.01 602.33 359.01 674.33 359.01 832.33 360.01 910.33 359.01 988.33 359.01"/></g><g id="L5"><polyline class="cls-12" points="598.33 98.01 598.33 177.01 598.33 241.01 598.33 309.01 446.33 459.01 446.33 521.01"/></g><g id="L4"><polyline class="cls-13" points="440.33 521.01 440.33 460.01 440.33 309.01 518.33 241.01 518.33 241.01 518.33 183.01"/></g><g id="L3"><polyline class="cls-14" points="176.33 193.01 255.33 193.01 255.33 240.87 255.33 521.01"/></g><g id="L2"><polyline class="cls-12" points="440.33 899.01 256.33 775.01 255.33 696.01"/></g><g id="L1"><line class="cls-13" x1="437.33" y1="697.01" x2="437.33" y2="895.01"/></g><g id="LT"><polyline class="cls-15" points="439.33 526.01 440.33 579.01 361.33 579.01 440.33 626.01 255.33 696.01 176.33 697.01"/><line class="cls-15" x1="440.33" y1="579.01" x2="440.33" y2="626.01"/></g><g id="C5"><polyline class="cls-16" points="361.42 186.73 361.33 241.01 440.33 309.01 596.33 309.01 596.33 370.01 596.33 469.01 596.33 706.01 596.33 899.01"/></g><g id="C3_C4" data-name="C3/C4"><polygon class="cls-17" points="255.33 696.01 441.33 696.01 518.33 696.01 590.33 696.01 590.33 465.01 434.33 465.01 434.33 527.01 255.33 526.01 255.33 696.01"/></g><g id="C1_C2" data-name="C1/C2"><polyline class="cls-18" points="176.33 251.01 176.33 269.01 176.33 707.01 176.33 899.01 255.33 899.01 440.33 899.01 596.33 899.01 719.33 837.01 832.33 775.01 832.33 589.01 832.33 469.01 832.33 370.01 832.33 187.01 596.33 187.01 518.33 187.01 358.33 187.01 176.33 187.01 176.33 268.01"/></g></g><g id="NODOS"><g id="Luz_Shopping_II_" data-name="Luz Shopping (II)"><circle class="cls-19" cx="98.83" cy="299.51" r="5" transform="translate(-205.3 383.07) rotate(-87.1)"/></g><g id="San_Juan_de_Dios" data-name="San Juan de Dios"><circle class="cls-19" cx="176.83" cy="240.51" r="5" transform="translate(-72.32 404.96) rotate(-87.1)"/></g><g id="La_Plata" data-name="La Plata"><circle class="cls-19" cx="255.83" cy="241.51" r="5" transform="translate(1.69 484.8) rotate(-87.1)"/></g><g id="Arenal"><circle class="cls-19" cx="361.83" cy="579.51" r="5" transform="translate(-235.24 911.58) rotate(-87.1)"/></g><g id="Gallo_Azul" data-name="Gallo Azul"><circle class="cls-19" cx="439.83" cy="578.51" r="5" transform="translate(-160.18 988.53) rotate(-87.1)"/></g><g id="Alameda_Vieja" data-name="Alameda Vieja"><circle class="cls-19" cx="440.83" cy="626.51" r="5" transform="translate(-207.17 1035.1) rotate(-87.1)"/></g><g id="Madre_de_Dios" data-name="Madre de Dios"><circle class="cls-19" cx="522.83" cy="696.51" r="5" transform="translate(-199.23 1183.46) rotate(-87.1)"/></g><g id="San_Telmo" data-name="San Telmo"><circle class="cls-19" cx="437.83" cy="696.51" r="5" transform="translate(-279.93 1098.56) rotate(-87.1)"/></g><g id="Puertas_del_Sur" data-name="Puertas del Sur"><circle class="cls-19" cx="176.83" cy="697.51" r="5" transform="translate(-528.73 838.85) rotate(-87.1)"/></g><g id="Consejo_de_Europa" data-name="Consejo de Europa"><circle class="cls-19" cx="255.83" cy="774.51" r="5" transform="translate(-530.63 990.85) rotate(-87.1)"/></g><g id="UPACE"><circle class="cls-19" cx="176.83" cy="899.51" r="5" transform="translate(-730.47 1030.63) rotate(-87.1)"/></g><g id="Finlandia"><circle class="cls-19" cx="98.83" cy="836.51" r="5" transform="translate(-741.61 892.92) rotate(-87.1)"/></g><g id="Avenida_de_Italia" data-name="Avenida de Italia"><circle class="cls-19" cx="98.83" cy="898.51" r="5" transform="translate(-803.53 951.78) rotate(-87.1)"/></g><g id="Moreno_Mendoza" data-name="Moreno Mendoza"><circle class="cls-19" cx="518.83" cy="836.51" r="5" transform="translate(-342.85 1312.38) rotate(-87.1)"/></g><g id="Villamarta"><circle class="cls-19" cx="514.83" cy="580.51" r="5" transform="translate(-90.97 1065.33) rotate(-87.1)"/></g><g id="Donantes_de_Sangre" data-name="Donantes de Sangre"><circle class="cls-19" cx="518.83" cy="240.51" r="5" transform="translate(252.39 746.52) rotate(-87.1)"/></g><g id="Las_Buganvillas" data-name="Las Buganvillas"><circle class="cls-19" cx="518.83" cy="186.51" r="5" transform="translate(306.32 695.25) rotate(-87.1)"/></g><g id="Federico_García_Lorca" data-name="Federico García Lorca"><circle class="cls-19" cx="361.83" cy="240.51" r="5" transform="translate(103.33 589.72) rotate(-87.1)"/></g><g id="Circunvalación"><circle class="cls-19" cx="361.83" cy="186.51" r="5" transform="translate(157.26 538.45) rotate(-87.1)"/></g><g id="El_Almendral" data-name="El Almendral"><circle class="cls-19" cx="440.83" cy="308.51" r="5" transform="translate(110.42 733.18) rotate(-87.1)"/></g><g id="Avenida_Andalucía" data-name="Avenida Andalucía"><circle class="cls-19" cx="598.83" cy="241.51" r="5" transform="translate(327.35 827.37) rotate(-87.1)"/></g><g id="El_Altillo" data-name="El Altillo"><circle class="cls-19" cx="675.83" cy="241.51" r="5" transform="translate(400.45 904.27) rotate(-87.1)"/></g><g id="Pozo_Albero" data-name="Pozo Albero"><circle class="cls-19" cx="598.83" cy="98.51" r="5" transform="translate(470.16 691.6) rotate(-87.1)"/></g><g id="Avenida_Europa" data-name="Avenida Europa"><circle class="cls-19" cx="679.83" cy="359.51" r="5" transform="translate(286.4 1020.3) rotate(-87.1)"/></g><g id="Arcos"><circle class="cls-19" cx="675.83" cy="579.51" r="5" transform="translate(62.88 1225.18) rotate(-87.1)"/></g><g id="Parque_Atlántico" data-name="Parque Atlántico"><circle class="cls-19" cx="675.83" cy="774.51" r="5" transform="translate(-131.87 1410.31) rotate(-87.1)"/></g><g id="La_Pita" data-name="La Pita"><circle class="cls-19" cx="765.83" cy="580.51" r="5" transform="translate(147.34 1316.01) rotate(-87.1)"/></g><g id="El_Motorista" data-name="El Motorista"><circle class="cls-19" cx="832.83" cy="459.51" r="5" transform="translate(331.79 1268.04) rotate(-87.1)"/></g><g id="La_Granja" data-name="La Granja"><circle class="cls-19" cx="831.83" cy="359.51" r="5" transform="translate(430.71 1172.1) rotate(-87.1)"/></g><g id="Avenida_La_Granja" data-name="Avenida La Granja"><circle class="cls-19" cx="910.83" cy="359.51" r="5" transform="translate(505.72 1251) rotate(-87.1)"/></g><g id="Almunia"><circle class="cls-19" cx="910.83" cy="459.51" r="5" transform="translate(405.85 1345.94) rotate(-87.1)"/></g><g id="Caulina"><circle class="cls-19" cx="987.83" cy="458.51" r="5" transform="translate(479.95 1421.89) rotate(-87.1)"/></g><g id="Ctra._Guadalcacín" data-name="Ctra. Guadalcacín"><circle class="cls-19" cx="986.83" cy="359.51" r="5" transform="translate(577.88 1326.9) rotate(-87.1)"/></g><g id="Setefilla"><circle class="cls-19" cx="987.83" cy="299.51" r="5" transform="translate(638.75 1270.94) rotate(-87.1)"/></g><g id="AFANAS"><circle class="cls-19" cx="988.83" cy="520.51" r="5" transform="translate(418.98 1481.76) rotate(-87.1)"/></g><g id="Cementerio"><circle class="cls-19" cx="912.83" cy="641.51" r="5" transform="translate(225.98 1520.74) rotate(-87.1)"/></g><g id="Luz_Shopping_I_" data-name="Luz Shopping (I)"><circle class="cls-19" cx="98.83" cy="240.51" r="5" transform="translate(-146.37 327.06) rotate(-87.1)"/></g><rect id="Minotauro" class="cls-19" x="580.96" y="686.51" width="32" height="16" rx="8" ry="8" transform="translate(1193.93 1389.03) rotate(180)"/><rect id="Santiago" class="cls-19" x="245.83" y="521.51" width="20" height="10" rx="5" ry="5" transform="translate(511.67 1053.03) rotate(180)"/><rect id="Alameda_Cristina" data-name="Alameda Cristina" class="cls-19" x="429.83" y="520.51" width="20" height="10" rx="5" ry="5" transform="translate(879.67 1051.03) rotate(180)"/><rect id="Sevilla" class="cls-19" x="429.83" y="458.51" width="20" height="10" rx="5" ry="5" transform="translate(879.67 927.03) rotate(180)"/><rect id="Catavinos" class="cls-19" x="579.83" y="458.51" width="20" height="10" rx="5" ry="5" transform="translate(1179.67 927.03) rotate(180)"/><rect id="Cuatro_Caminos" data-name="Cuatro Caminos" class="cls-19" x="244.83" y="689.51" width="20" height="10" rx="5" ry="5" transform="translate(509.67 1389.03) rotate(180)"/><rect id="Parque_Vallesequillo" data-name="Parque Vallesequillo" class="cls-19" x="583.83" y="892.51" width="20" height="10" rx="5" ry="5" transform="translate(1187.67 1795.03) rotate(180)"/><rect id="Diego_de_Cádiz" data-name="Diego de Cádiz" class="cls-19" x="429.83" y="830.51" width="20" height="10" rx="5" ry="5" transform="translate(879.67 1671.03) rotate(180)"/><rect id="Ronda_de_San_Telmo" data-name="Ronda de San Telmo" class="cls-19" x="427.83" y="769.51" width="20" height="10" rx="5" ry="5" transform="translate(875.67 1549.03) rotate(180)"/><rect id="Rotonda_6" data-name="Rotonda 6" class="cls-19" x="821.83" y="576.51" width="20" height="10" rx="5" ry="5" transform="translate(1663.67 1163.03) rotate(180)"/><rect id="IFECA" class="cls-19" x="588.83" y="354.51" width="20" height="10" rx="5" ry="5" transform="translate(1197.67 719.03) rotate(180)"/><rect id="Hontoria" class="cls-19" x="588.83" y="303.51" width="20" height="10" rx="5" ry="5" transform="translate(1197.67 617.03) rotate(180)"/><rect id="La_Pepa" data-name="La Pepa" class="cls-19" x="819.83" y="178.51" width="20" height="10" rx="5" ry="5" transform="translate(1546.38 -273.5) rotate(135)"/><rect id="Hospital" class="cls-19" x="166.83" y="186.51" width="20" height="10" rx="5" ry="5" transform="translate(187.21 -68.95) rotate(45)"/><rect id="Biarritz" class="cls-19" x="669.83" y="458.51" width="20" height="10" rx="5" ry="5" transform="translate(526.87 -344.95) rotate(45)"/><rect id="Corte_Inglés" data-name="Corte Inglés" class="cls-19" x="588.83" y="178.51" width="20" height="10" rx="5" ry="5" transform="translate(782.35 -415.32) rotate(90)"/><rect id="Ciudad_de_los_Niños" data-name="Ciudad de los Niños" class="cls-19" x="747.83" y="456.51" width="20" height="10" rx="5" ry="5" transform="translate(1219.35 -296.32) rotate(90)"/><rect id="El_Portal" data-name="El Portal" class="cls-19" x="427.83" y="890.51" width="20" height="10" rx="5" ry="5" transform="translate(1333.35 457.68) rotate(90)"/><rect id="El_Retiro" data-name="El Retiro" class="cls-19" x="665.83" y="693.51" width="20" height="10" rx="5" ry="5" transform="translate(1374.35 22.68) rotate(90)"/><rect id="Hospital_FREMAP" data-name="Hospital FREMAP" class="cls-19" x="245.83" y="890.51" width="20" height="10" rx="5" ry="5" transform="translate(1151.35 639.68) rotate(90)"/><rect id="Rotonda_4" data-name="Rotonda 4" class="cls-19" x="819.83" y="769.51" width="20" height="10" rx="5" ry="5" transform="translate(1659.67 1549.03) rotate(180)"/><rect id="Las_Delicias" data-name="Las Delicias" class="cls-19" x="755.83" y="693.51" width="20" height="10" rx="5" ry="5" transform="translate(1464.35 -67.32) rotate(90)"/><g id="PARADAS_SIMPLES" data-name="PARADAS SIMPLES"><circle id="Timanfaya" class="cls-20" cx="723.48" cy="834.98" r="1.96" transform="translate(-165.33 1491.2) rotate(-85.53)"/><circle id="Picadueñas" class="cls-20" cx="176.48" cy="444.98" r="1.96" transform="translate(-280.9 586.25) rotate(-85.53)"/><circle id="Duque_de_Abrantes" data-name="Duque de Abrantes" class="cls-20" cx="440.48" cy="344.98" r="1.96" transform="translate(62.23 757.24) rotate(-85.53)"/><circle id="Escuela_de_Arte_Ecuestre" data-name="Escuela de Arte Ecuestre" class="cls-20" cx="440.48" cy="400.98" r="1.96" transform="translate(6.4 808.88) rotate(-85.53)"/><circle id="Plaza_del_Caballo" data-name="Plaza del Caballo" class="cls-20" cx="529.48" cy="377.98" r="1.96" transform="translate(111.4 876.4) rotate(-85.53)"/><circle id="Puerta_de_Rota" data-name="Puerta de Rota" class="cls-20" cx="255.48" cy="602.98" r="1.96" transform="translate(-365.57 810.7) rotate(-85.53)"/><circle id="Luis_Vives" data-name="Luis Vives" class="cls-20" cx="255.48" cy="555.98" r="1.96" transform="translate(-318.71 767.36) rotate(-85.53)"/><circle id="San_José_Obrero" data-name="San José Obrero" class="cls-20" cx="909.48" cy="239.98" r="1.96" transform="translate(599.37 1128) rotate(-85.53)"/><circle id="Manuel_F._Cruz" data-name="Manuel F. Cruz" class="cls-20" cx="952.48" cy="326.98" r="1.96" transform="translate(552.28 1251.09) rotate(-85.53)"/><circle id="Feria" class="cls-20" cx="596.48" cy="408.98" r="1.96" transform="translate(142.27 971.78) rotate(-85.53)"/><circle id="Palacio_Municipal_de_Deportes" data-name="Palacio Municipal de Deportes" class="cls-20" cx="680.48" cy="385.98" r="1.96" transform="translate(242.66 1034.32) rotate(-85.53)"/><circle id="Lola_Flores" data-name="Lola Flores" class="cls-20" cx="681.48" cy="424.98" r="1.96" transform="translate(204.7 1071.28) rotate(-85.53)"/><circle id="Universidad" class="cls-20" cx="675.48" cy="493.98" r="1.96" transform="translate(130.37 1128.92) rotate(-85.53)"/><circle id="Chapín" class="cls-20" cx="675.48" cy="548.98" r="1.96" transform="translate(75.54 1179.63) rotate(-85.53)"/><circle id="Olivar_de_Rivero" data-name="Olivar de Rivero" class="cls-20" cx="712.48" cy="540.98" r="1.96" transform="translate(117.63 1209.14) rotate(-85.53)"/><circle id="Av._Taginaste" data-name="Av. Taginaste" class="cls-20" cx="791.48" cy="491.98" r="1.96" transform="translate(239.33 1242.72) rotate(-85.53)"/><circle id="La_Marquesa" data-name="La Marquesa" class="cls-20" cx="904.48" cy="520.98" r="1.96" transform="translate(314.61 1382.12) rotate(-85.53)"/><circle id="Medina_Sidonia" data-name="Medina Sidonia" class="cls-20" cx="596.48" cy="757.98" r="1.96" transform="translate(-205.67 1293.59) rotate(-85.53)"/><circle id="La_Canaleja" data-name="La Canaleja" class="cls-20" cx="826.48" cy="718.98" r="1.96" transform="translate(45.29 1486.93) rotate(-85.53)"/><circle id="Consolación" class="cls-20" cx="724.48" cy="696.98" r="1.96" transform="translate(-26.83 1364.95) rotate(-85.53)"/><circle id="Club_Nazaret" data-name="Club Nazaret" class="cls-20" cx="753.48" cy="774.98" r="1.96" transform="translate(-77.85 1465.79) rotate(-85.53)"/><circle id="Tartessos" class="cls-20" cx="701.48" cy="753.98" r="1.96" transform="translate(-104.86 1394.58) rotate(-85.53)"/><circle id="Plaza_Macedonia" data-name="Plaza Macedonia" class="cls-20" cx="737.48" cy="723.98" r="1.96" transform="translate(-41.76 1402.81) rotate(-85.53)"/><circle id="La_Juventud" data-name="La Juventud" class="cls-20" cx="308.48" cy="809.98" r="1.96" transform="translate(-523.07 1054.41) rotate(-85.53)"/><circle id="Blas_Infante" data-name="Blas Infante" class="cls-20" cx="355.48" cy="841.98" r="1.96" transform="translate(-511.64 1130.78) rotate(-85.53)"/><circle id="Vallesequillo" class="cls-20" cx="590.48" cy="800.98" r="1.96" transform="translate(-254.07 1327.26) rotate(-85.53)"/><circle id="Azorín" class="cls-20" cx="369.48" cy="774.98" r="1.96" transform="translate(-431.93 1082.95) rotate(-85.53)"/><circle id="Caparrós" class="cls-20" cx="255.48" cy="809.98" r="1.96" transform="translate(-571.94 1001.57) rotate(-85.53)"/><circle id="La_Igualdad" data-name="La Igualdad" class="cls-20" cx="255.48" cy="846.98" r="1.96" transform="translate(-608.83 1035.69) rotate(-85.53)"/><circle id="Rocío" class="cls-20" cx="222.48" cy="273.98" r="1.96" transform="translate(-68 474.44) rotate(-85.53)"/><circle id="Zoo" class="cls-20" cx="249.48" cy="371.98" r="1.96" transform="translate(-140.81 591.72) rotate(-85.53)"/><circle id="Área_Sur" data-name="Área Sur" class="cls-20" cx="138.48" cy="269.98" r="1.96" transform="translate(-141.47 387) rotate(-85.53)"/><circle id="La_Unión" data-name="La Unión" class="cls-20" cx="283.76" cy="240.98" r="1.96" transform="translate(21.41 505.1) rotate(-85.53)"/><circle id="Av._del_Tamarix" data-name="Av. del Tamarix" class="cls-20" cx="446.76" cy="240.98" r="1.96" transform="translate(171.71 667.61) rotate(-85.53)"/><circle id="Albariza" class="cls-20" cx="557.76" cy="240.98" r="1.96" transform="translate(274.06 778.27) rotate(-85.53)"/><circle id="Plaza_de_las_Marinas" data-name="Plaza de las Marinas" class="cls-20" cx="329.2" cy="240.98" r="1.96" transform="translate(63.31 550.41) rotate(-85.53)"/></g></g><g id="LETRAS"><text class="cls-21" transform="translate(39.81 314.25)">Luz Shopping (II)</text><text class="cls-21" transform="translate(132.82 227.39)">San Juan<tspan x="7.43" y="10">de Dios</tspan></text><text class="cls-21" transform="translate(326.56 582.03)">Arenal</text><text class="cls-21" transform="translate(448.25 578.03)">Gallo<tspan x="0" y="10">Azul</tspan></text><text class="cls-21" transform="translate(448.24 625.96)">Alameda<tspan class="cls-22"><tspan x="0" y="10">V</tspan><tspan class="cls-23" x="4.95" y="10">ieja</tspan></tspan></text><text class="cls-21" transform="translate(263.91 758.18)">Consejo<tspan x="-4.17" y="10">de Europa</tspan></text><text class="cls-21" transform="translate(453.25 772.18)">Ronda de<tspan x="0" y="10">San </tspan><tspan class="cls-24" x="17.4" y="10">T</tspan><tspan x="21.46" y="10">elmo</tspan></text><text class="cls-21" transform="translate(392.65 834.75)">Diego de<tspan x="12.76" y="10">Cádiz</tspan></text><text class="cls-21" transform="translate(221.67 915.68)">Hospital FREMAP</text><text class="cls-21" transform="translate(162.77 915.68)">U<tspan class="cls-25" x="5.38" y="0">P</tspan><tspan x="10.03" y="0">ACE</tspan></text><text class="cls-21" transform="translate(95.46 828.75)">Finlandia</text><text class="cls-26" transform="translate(65.66 915.68)">A<tspan class="cls-27" x="5.38" y="0">venida de Italia</tspan></text><text class="cls-21" transform="translate(514.56 851.75)">Moreno<tspan x="0" y="10">Mendoza</tspan></text><text class="cls-21" transform="translate(600.28 711.89)">Minotauro</text><text class="cls-21" transform="translate(477.18 225.39)">Donantes<tspan x="-2.61" y="10">de Sangre</tspan></text><text class="cls-21" transform="translate(367.42 226.39)"><tspan class="cls-28">F</tspan><tspan x="4.43" y="0">ederico</tspan><tspan x="0" y="10">García Lorca</tspan></text><text class="cls-21" transform="translate(383.09 313.32)">El Almendral</text><text class="cls-21" transform="translate(400.11 466.18)">Sevilla</text><text class="cls-21" transform="translate(545.02 477.18)">Catavinos</text><text class="cls-21" transform="translate(567.15 374.25)">IFE<tspan class="cls-29" x="12.02" y="0">C</tspan><tspan x="17.21" y="0">A</tspan></text><text class="cls-21" transform="translate(603.53 225.39)"><tspan class="cls-29">A<tspan class="cls-27" x="5.38" y="0">venida</tspan></tspan><tspan x="0" y="10">Andalucia</tspan></text><text class="cls-21" transform="translate(573.07 86.46)"><tspan class="cls-22">P</tspan><tspan x="4.95" y="0">ozo Albero</tspan></text><text class="cls-21" transform="translate(640.98 461.18)">Biarritz</text><text class="cls-21" transform="translate(683.13 582.03)">Arcos</text><text class="cls-21" transform="translate(662.05 788.82)"><tspan class="cls-22">P</tspan><tspan x="4.95" y="0">a</tspan><tspan class="cls-30" x="9.76" y="0">r</tspan><tspan x="12.93" y="0">que</tspan><tspan x="-3.98" y="10">Atlántico</tspan></text><text class="cls-21" transform="translate(772.62 696.89)">Las Delicias</text><text class="cls-21" transform="translate(728.88 586.87)">La Pita</text><text class="cls-21" transform="translate(763.68 445.18)">Ciudad de<tspan x="1.59" y="10">los Niños</tspan></text><text class="cls-21" transform="translate(837.7 453.18)">El Motorista</text><text class="cls-21" transform="translate(786.58 350.25)">La Granja</text><text class="cls-21" transform="translate(874.6 341.25)"><tspan class="cls-29">A<tspan class="cls-27" x="5.38" y="0">venida</tspan></tspan><tspan x="-3.04" y="10">La Granja</tspan></text><text class="cls-21" transform="translate(914.06 453.18)">Almunia</text><text class="cls-21" transform="translate(1002.22 301.32)">Setefilla</text><text class="cls-21" transform="translate(843.84 183.46)">La <tspan class="cls-22" x="11.84" y="0">P</tspan><tspan x="16.79" y="0">epa</tspan></text><text class="cls-21" transform="translate(1002.47 526.03)">A<tspan class="cls-31" x="5.56" y="0">F</tspan><tspan x="9.82" y="0">ANAS</tspan></text><text class="cls-21" transform="translate(43.59 230.39)">LuzShopping (I)</text><rect class="cls-32" x="164.36" y="567.01" width="23.29" height="23.29" rx="1.44" ry="1.44"/><rect class="cls-33" x="165.53" y="567.97" width="21.37" height="21.37" rx="1.44" ry="1.44"/><text class="cls-34" transform="translate(165.94 585.14)">C1</text><rect class="cls-32" x="244.36" y="627.01" width="23.29" height="23.29" rx="1.44" ry="1.44"/><rect class="cls-35" x="245.53" y="627.97" width="21.37" height="21.37" rx="1.44" ry="1.44"/><text class="cls-34" transform="translate(245.94 645.14)">C3</text><rect class="cls-32" x="244.36" y="652.01" width="23.29" height="23.29" rx="1.44" ry="1.44"/><rect class="cls-35" x="245.53" y="652.97" width="21.37" height="21.37" rx="1.44" ry="1.44"/><text class="cls-34" transform="translate(245.94 670.14)">C4</text><rect class="cls-32" x="164.36" y="594.01" width="23.29" height="23.29" rx="1.44" ry="1.44"/><rect class="cls-33" x="165.53" y="594.97" width="21.37" height="21.37" rx="1.44" ry="1.44"/><text class="cls-34" transform="translate(165.94 612.14)">C2</text><text class="cls-36" transform="translate(728.73 844.22) rotate(0.11)"><tspan class="cls-29">T</tspan><tspan x="4.45" y="0">imanfa</tspan><tspan class="cls-37" x="29.81" y="0">y</tspan><tspan x="33.97" y="0">a</tspan></text><text class="cls-36" transform="translate(129.74 448.22) rotate(0.11)">Picadueñas</text><text class="cls-36" transform="translate(393.95 399.18) rotate(0.11)">Escuela de<tspan x="-9.43" y="10">Arte Ecuestre</tspan></text><text class="cls-36" transform="translate(398.57 345.19) rotate(0.11)">Duque de<tspan x="2.6" y="10">Abrantes</tspan></text><text class="cls-36" transform="translate(489.8 369.2) rotate(0.11)">Plaza del<tspan x="5.91" y="10">Caballo</tspan></text><text class="cls-36" transform="translate(260.73 606.21) rotate(0.11)">Puerta de Rota</text><text class="cls-36" transform="translate(259.93 559.26) rotate(0.11)">Luis<tspan class="cls-38" x="15.18" y="0"> </tspan><tspan x="17.21" y="0">Vives</tspan></text><text class="cls-36" transform="translate(601.93 411.26) rotate(0.11)"><tspan class="cls-39">F</tspan><tspan x="4.2" y="0">eria</tspan></text><text class="cls-36" transform="translate(915.93 242.26) rotate(0.11)">San José Obrero</text><text class="cls-36" transform="translate(685.95 384.26) rotate(0.11)"><tspan class="cls-29">P<tspan class="cls-27" x="4.63" y="0">alacio Municipal</tspan></tspan><tspan x="0" y="10">de Deportes</tspan></text><text class="cls-36" transform="translate(685.93 428.26) rotate(0.11)">Lola Flores</text><text class="cls-36" transform="translate(627.82 497.18) rotate(0.11)">Universidad</text><text class="cls-36" transform="translate(642.27 551.21) rotate(0.11)">Ch<tspan class="cls-40" x="9.82" y="0">a</tspan><tspan x="14.36" y="0">pín</tspan></text><text class="cls-36" transform="translate(718.93 543.26) rotate(0.11)">Olivar de Rivero</text><text class="cls-36" transform="translate(737.93 497.26) rotate(0.11)">A<tspan class="cls-41" x="5" y="0">v</tspan><tspan class="cls-31" x="8.51" y="0">. </tspan><tspan class="cls-42" x="12.57" y="0">T</tspan><tspan class="cls-37" x="16.46" y="0">a</tspan><tspan x="21" y="0">ginaste</tspan></text><text class="cls-36" transform="translate(922.71 313.21) rotate(0.11)">Manuel<tspan class="cls-43"><tspan x="2.79" y="10">F</tspan><tspan class="cls-38" x="6.12" y="10">.</tspan><tspan class="cls-23" x="8.15" y="10" xml:space="preserve"> Cruz</tspan></tspan></text><text class="cls-36" transform="translate(880.93 534.26) rotate(0.11)">La Marquesa</text><circle class="cls-20" cx="361.48" cy="526.98" r="1.96" transform="translate(-192.06 846.3) rotate(-85.53)"/><text class="cls-36" transform="translate(347.93 538.26) rotate(0.11)"><tspan class="cls-29">P</tspan><tspan class="cls-27" x="4.63" y="0">o</tspan><tspan class="cls-44" x="9.07" y="0">r</tspan><tspan x="12.21" y="0">vera</tspan></text><circle class="cls-20" cx="371.48" cy="695.98" r="1.96" transform="translate(-351.33 1012.1) rotate(-85.53)"/><text class="cls-36" transform="translate(341.02 691.2) rotate(0.11)">Plaza del Carbón</text><text class="cls-36" transform="translate(600.93 761.26) rotate(0.11)">Medina Sidonia</text><text class="cls-36" transform="translate(778.93 721.26) rotate(0.11)">La Canaleja</text><text class="cls-36" transform="translate(718.84 681.25) rotate(0.11)">La <tspan x="-16.67" y="10">Consolación</tspan></text><text class="cls-36" transform="translate(745.24 788.24) rotate(0.11)">Club<tspan x="-5.91" y="10">Nazaret</tspan></text><text class="cls-36" transform="translate(742.48 732.26) rotate(0.11)">Plaza<tspan x="0" y="10">Macedonia</tspan></text><text class="cls-36" transform="translate(316.48 810.26) rotate(0.11)">La Juventud</text><text class="cls-36" transform="translate(335.74 849.23) rotate(0.11)">Blas<tspan x="-9.62" y="10">Infante</tspan></text><text class="cls-45" transform="translate(706.48 760.26) rotate(0.11)">T<tspan class="cls-27" x="3.89" y="0">artessos</tspan></text><text class="cls-36" transform="translate(539.93 804.26) rotate(0.11)"><tspan class="cls-29">V</tspan><tspan x="4.44" y="0">allesequillo</tspan></text><text class="cls-36" transform="translate(356.93 768.26) rotate(0.11)">Azorín</text><text class="cls-36" transform="translate(217.93 813.2) rotate(0.11)">C<tspan class="cls-40" x="5.19" y="0">a</tspan><tspan x="9.73" y="0">parrós</tspan></text><text class="cls-36" transform="translate(208.4 850.18) rotate(0.11)">La Igualdad</text><text class="cls-36" transform="translate(198.93 282.26) rotate(0.11)">Rocío</text><text class="cls-36" transform="translate(230.93 374.26) rotate(0.11)">Zoo</text><text class="cls-36" transform="translate(142.93 278.26) rotate(0.11)">Área<tspan x="0" y="10">Sur</tspan></text><text class="cls-36" transform="translate(267.65 235.26) rotate(0.11)">La Unión</text><text class="cls-36" transform="translate(435.69 253.24) rotate(0.11)">Av del<tspan class="cls-42"><tspan x="-3.24" y="10">T</tspan><tspan class="cls-27" x="0.65" y="10">amarix</tspan></tspan></text><text class="cls-36" transform="translate(543.25 253.23) rotate(0.11)">Albariza</text><text class="cls-36" transform="translate(310.66 253.23) rotate(0.11)">Plaza de<tspan x="-5.74" y="10">las Marinas</tspan></text><text class="cls-46" transform="translate(41.8 74.97)">METRO<tspan class="cls-47" x="151.52" y="0">BUS</tspan></text><rect class="cls-20" x="490.23" y="158.01" width="74.11" height="22" rx="1.94" ry="1.94"/><rect class="cls-32" x="490.79" y="159.01" width="20" height="20" rx="1.44" ry="1.44"/><rect class="cls-48" x="491.61" y="159.84" width="18.35" height="18.35" rx="1.44" ry="1.44"/><text class="cls-49" transform="translate(492.8 174.33)">L4</text><text class="cls-50" transform="translate(514.79 167.78)">Las<tspan x="0" y="10">Buganvillas</tspan></text><rect class="cls-20" x="146.08" y="159.61" width="59.25" height="19.66" rx="1.94" ry="1.94"/><rect class="cls-32" x="146.89" y="160.24" width="18.41" height="18.41" rx="1.44" ry="1.44"/><rect class="cls-51" x="147.81" y="161" width="16.89" height="16.89" rx="1.44" ry="1.44"/><text class="cls-52" transform="translate(148.74 174.34)">L3</text><text class="cls-53" transform="translate(168.24 172.22)">Hospital</text><rect class="cls-20" x="318.08" y="159.61" width="84.25" height="19.66" rx="1.94" ry="1.94"/><rect class="cls-32" x="318.89" y="160.24" width="18.41" height="18.41" rx="1.44" ry="1.44"/><rect class="cls-54" x="319.81" y="161" width="16.89" height="16.89" rx="1.44" ry="1.44"/><text class="cls-52" transform="translate(319.74 174.34)">C5</text><text class="cls-53" transform="translate(339.44 172.22)">Circun<tspan class="cls-55" x="26.04" y="0">v</tspan><tspan x="30.37" y="0">alación</tspan></text><rect class="cls-20" x="202.08" y="231.61" width="45.25" height="19.66" rx="1.94" ry="1.94"/><rect class="cls-32" x="202.89" y="232.24" width="18.41" height="18.41" rx="1.44" ry="1.44"/><rect class="cls-56" x="203.81" y="233" width="16.89" height="16.89" rx="1.44" ry="1.44"/><text class="cls-52" transform="translate(204.74 246.34)">E5</text><text class="cls-53" transform="translate(222.96 240.11) rotate(-0.32)">La<tspan x="0" y="8.85">Plata</tspan></text><rect class="cls-20" x="686.08" y="230.61" width="57.25" height="19.66" rx="1.94" ry="1.94"/><rect class="cls-32" x="686.89" y="231.24" width="18.41" height="18.41" rx="1.44" ry="1.44"/><rect class="cls-56" x="687.81" y="232" width="16.89" height="16.89" rx="1.44" ry="1.44"/><text class="cls-52" transform="translate(688.74 245.34)">E5</text><text class="cls-53" transform="translate(706.96 243.11) rotate(-0.32)">El Altillo</text><rect class="cls-20" x="607.08" y="156.61" width="73.25" height="19.66" rx="1.94" ry="1.94"/><rect class="cls-32" x="607.89" y="157.24" width="18.41" height="18.41" rx="1.44" ry="1.44"/><rect class="cls-57" x="608.81" y="158" width="16.89" height="16.89" rx="1.44" ry="1.44"/><text class="cls-52" transform="translate(609.74 171.34)">E6</text><text class="cls-53" transform="translate(627.96 169.11) rotate(-0.32)">Corte Inglés</text><rect class="cls-20" x="636.08" y="331.61" width="87.25" height="19.66" rx="1.94" ry="1.94"/><rect class="cls-32" x="636.89" y="332.24" width="18.41" height="18.41" rx="1.44" ry="1.44"/><rect class="cls-58" x="637.81" y="333" width="16.89" height="16.89" rx="1.44" ry="1.44"/><text class="cls-52" transform="translate(638.74 346.34)">E7</text><text class="cls-53" transform="translate(656.96 344.11) rotate(-0.32)"><tspan class="cls-59">A</tspan><tspan x="5.44" y="0">venida Europa</tspan></text><rect class="cls-20" x="845.08" y="564.61" width="87.25" height="19.66" rx="1.94" ry="1.94"/><rect class="cls-32" x="845.89" y="565.24" width="18.41" height="18.41" rx="1.44" ry="1.44"/><rect class="cls-57" x="846.81" y="566" width="16.89" height="16.89" rx="1.44" ry="1.44"/><text class="cls-52" transform="translate(847.74 579.34)">E6</text><text class="cls-53" transform="translate(885.98 577.02) rotate(0.07)">Rotonda 6</text><rect class="cls-32" x="864.89" y="565.24" width="18.41" height="18.41" rx="1.44" ry="1.44"/><rect class="cls-58" x="865.81" y="566" width="16.89" height="16.89" rx="1.44" ry="1.44"/><text class="cls-52" transform="translate(866.74 579.34)">E7</text><rect class="cls-20" x="262.08" y="499.61" width="62.25" height="19.66" rx="1.94" ry="1.94"/><rect class="cls-32" x="262.89" y="500.24" width="18.41" height="18.41" rx="1.44" ry="1.44"/><rect class="cls-51" x="263.81" y="501" width="16.89" height="16.89" rx="1.44" ry="1.44"/><text class="cls-52" transform="translate(264.74 514.34)">L3</text><text class="cls-53" transform="translate(284.61 512.22)">Santiago</text><rect class="cls-20" x="453.23" y="517.01" width="101.11" height="21" rx="1.94" ry="1.94"/><text class="cls-50" transform="translate(455.79 525.78)">Alameda<tspan x="0" y="10">Cristina</tspan></text><rect class="cls-20" x="408.08" y="909.61" width="78.25" height="19.66" rx="1.94" ry="1.94"/><text class="cls-53" transform="translate(448.75 922.22)">El <tspan class="cls-60" x="9.72" y="0">P</tspan><tspan x="14.73" y="0">ortal</tspan></text><rect class="cls-32" x="427.89" y="910.24" width="18.41" height="18.41" rx="1.44" ry="1.44"/><rect class="cls-61" x="428.81" y="911" width="16.89" height="16.89" rx="1.44" ry="1.44"/><text class="cls-52" transform="translate(429.74 924.34)">L2</text><rect class="cls-32" x="408.89" y="910.24" width="18.41" height="18.41" rx="1.44" ry="1.44"/><rect class="cls-62" x="409.81" y="911" width="16.89" height="16.89" rx="1.44" ry="1.44"/><text class="cls-52" transform="translate(410.95 924.34)">L1</text><rect class="cls-20" x="561.08" y="905.61" width="94.25" height="19.66" rx="1.94" ry="1.94"/><text class="cls-53" transform="translate(602 914.22)"><tspan class="cls-60">P</tspan><tspan class="cls-63" x="5.01" y="0">a</tspan><tspan class="cls-55" x="9.88" y="0">r</tspan><tspan x="13.08" y="0">que</tspan><tspan class="cls-59" x="0" y="8.85">V</tspan><tspan x="5.07" y="8.85">allesequillo</tspan></text><rect class="cls-32" x="561.89" y="906.24" width="18.41" height="18.41" rx="1.44" ry="1.44"/><rect class="cls-64" x="562.81" y="907" width="16.89" height="16.89" rx="1.44" ry="1.44"/><text class="cls-52" transform="translate(563.81 920.34)">E1</text><rect class="cls-32" x="580.89" y="906.24" width="18.41" height="18.41" rx="1.44" ry="1.44"/><rect class="cls-54" x="581.81" y="907" width="16.89" height="16.89" rx="1.44" ry="1.44"/><text class="cls-52" transform="translate(581.74 920.34)">C5</text><rect class="cls-20" x="492.08" y="670.61" width="53.25" height="19.66" rx="1.94" ry="1.94"/><text class="cls-53" transform="translate(513 679.22)">Madre<tspan x="0" y="8.85">de Dios</tspan></text><rect class="cls-32" x="492.89" y="671.24" width="18.41" height="18.41" rx="1.44" ry="1.44"/><rect class="cls-64" x="493.81" y="672" width="16.89" height="16.89" rx="1.44" ry="1.44"/><text class="cls-52" transform="translate(494.81 685.34)">E1</text><rect class="cls-20" x="443.08" y="701.61" width="66.25" height="19.66" rx="1.94" ry="1.94"/><text class="cls-53" transform="translate(464 714.22)">San <tspan class="cls-65" x="17.61" y="0">T</tspan><tspan x="21.72" y="0">elmo</tspan></text><rect class="cls-32" x="443.89" y="702.24" width="18.41" height="18.41" rx="1.44" ry="1.44"/><rect class="cls-62" x="444.81" y="703" width="16.89" height="16.89" rx="1.44" ry="1.44"/><text class="cls-52" transform="translate(445.95 716.34)">L1</text><rect class="cls-20" x="260.33" y="702.01" width="64" height="20.6" rx="1.94" ry="1.94"/><text class="cls-53" transform="translate(283 711.22)">Cuatro<tspan x="0" y="8.85">Caminos</tspan></text><rect class="cls-32" x="261.89" y="703.24" width="18.41" height="18.41" rx="1.44" ry="1.44"/><rect class="cls-61" x="262.81" y="704" width="16.89" height="16.89" rx="1.44" ry="1.44"/><text class="cls-52" transform="translate(263.74 717.34)">L2</text><rect class="cls-20" x="109.33" y="688.01" width="58" height="20.6" rx="1.94" ry="1.94"/><text class="cls-53" transform="translate(132 697.22)">Puertas <tspan x="0" y="8.85">del Sur</tspan></text><rect class="cls-32" x="110.89" y="689.24" width="18.41" height="18.41" rx="1.44" ry="1.44"/><rect class="cls-66" x="111.81" y="690" width="16.89" height="16.89" rx="1.44" ry="1.44"/><text class="cls-52" transform="translate(113.53 703.34)"><tspan class="cls-67">L</tspan><tspan x="6.03" y="0">T</tspan></text><rect class="cls-32" x="357.89" y="645.24" width="18.41" height="18.41" rx="1.44" ry="1.44"/><rect class="cls-66" x="358.81" y="646" width="16.89" height="16.89" rx="1.44" ry="1.44"/><text class="cls-52" transform="translate(360.53 659.34)"><tspan class="cls-67">L</tspan><tspan x="6.03" y="0">T</tspan></text><rect class="cls-32" x="494.89" y="518.24" width="18.41" height="18.41" rx="1.44" ry="1.44"/><rect class="cls-48" x="495.81" y="519" width="16.89" height="16.89" rx="1.44" ry="1.44"/><text class="cls-52" transform="translate(496.74 532.34)">L4</text><rect class="cls-32" x="514.89" y="518.24" width="18.41" height="18.41" rx="1.44" ry="1.44"/><rect class="cls-61" x="515.81" y="519" width="16.89" height="16.89" rx="1.44" ry="1.44"/><text class="cls-52" transform="translate(516.74 532.34)">L5</text><rect class="cls-32" x="534.89" y="518.24" width="18.41" height="18.41" rx="1.44" ry="1.44"/><rect class="cls-66" x="535.81" y="519" width="16.89" height="16.89" rx="1.44" ry="1.44"/><text class="cls-52" transform="translate(537.53 532.34)"><tspan class="cls-67">L</tspan><tspan x="6.03" y="0">T</tspan></text><rect class="cls-20" x="612.08" y="298.61" width="62.25" height="19.66" rx="1.94" ry="1.94"/><rect class="cls-32" x="612.89" y="299.24" width="18.41" height="18.41" rx="1.44" ry="1.44"/><rect class="cls-68" x="613.81" y="300" width="16.89" height="16.89" rx="1.44" ry="1.44"/><text class="cls-52" transform="translate(614.74 313.34)">L6</text><text class="cls-53" transform="translate(633.94 311.22)">Hontoria</text><rect class="cls-20" x="998.08" y="349.61" width="97.25" height="19.66" rx="1.94" ry="1.94"/><rect class="cls-32" x="998.89" y="350.24" width="18.41" height="18.41" rx="1.44" ry="1.44"/><rect class="cls-68" x="999.81" y="351" width="16.89" height="16.89" rx="1.44" ry="1.44"/><text class="cls-52" transform="translate(1000.74 364.34)">L6</text><text class="cls-53" transform="translate(1020 362.22)">Ctra<tspan class="cls-69" x="16.67" y="0">.</tspan><tspan x="18.72" y="0" xml:space="preserve"> Guadalcacín</tspan></text><rect class="cls-20" x="998.08" y="448.61" width="58.25" height="19.66" rx="1.94" ry="1.94"/><rect class="cls-32" x="998.89" y="449.24" width="18.41" height="18.41" rx="1.44" ry="1.44"/><rect class="cls-70" x="999.81" y="450" width="16.89" height="16.89" rx="1.44" ry="1.44"/><text class="cls-52" transform="translate(1000.74 463.34)">L7</text><text class="cls-53" transform="translate(1020 461.22)">Caulina</text><rect class="cls-20" x="921.08" y="631.61" width="73.25" height="19.66" rx="1.94" ry="1.94"/><rect class="cls-32" x="921.89" y="632.24" width="18.41" height="18.41" rx="1.44" ry="1.44"/><rect class="cls-71" x="922.81" y="633" width="16.89" height="16.89" rx="1.44" ry="1.44"/><text class="cls-52" transform="translate(923.74 646.34)">L8</text><text class="cls-53" transform="translate(943 644.22)">Cementerio</text><rect class="cls-20" x="643.08" y="666.61" width="48.25" height="19.66" rx="1.94" ry="1.94"/><rect class="cls-32" x="643.89" y="667.24" width="18.41" height="18.41" rx="1.44" ry="1.44"/><rect class="cls-72" x="644.81" y="668" width="16.89" height="16.89" rx="1.44" ry="1.44"/><text class="cls-52" transform="translate(645.74 681.34)">E8</text><text class="cls-53" transform="translate(665 675.22)">El<tspan x="0" y="8.85">Retiro</tspan></text><rect class="cls-20" x="830.08" y="781.61" width="66.25" height="19.66" rx="1.94" ry="1.94"/><rect class="cls-32" x="830.89" y="782.24" width="18.41" height="18.41" rx="1.44" ry="1.44"/><rect class="cls-72" x="831.81" y="783" width="16.89" height="16.89" rx="1.44" ry="1.44"/><text class="cls-52" transform="translate(832.74 796.34)">E8</text><text class="cls-53" transform="translate(852 794.22)">Rotonda 4</text><rect class="cls-20" x="491.08" y="553.56" width="84.25" height="19.66" rx="1.94" ry="1.94"/><rect class="cls-32" x="491.89" y="554.18" width="18.41" height="18.41" rx="1.44" ry="1.44"/><rect class="cls-70" x="492.81" y="554.94" width="16.89" height="16.89" rx="1.44" ry="1.44"/><text class="cls-52" transform="translate(493.78 568.24) rotate(0.02)">L7</text><rect class="cls-32" x="510.89" y="554.29" width="18.41" height="18.41" rx="1.44" ry="1.44"/><rect class="cls-71" x="511.81" y="555.05" width="16.89" height="16.89" rx="1.44" ry="1.44"/><text class="cls-52" transform="translate(512.78 568.35) rotate(0.02)">L8</text><text class="cls-53" transform="translate(532.03 566.23) rotate(0.02)"><tspan class="cls-60">V</tspan><tspan x="5.01" y="0">illamarta</tspan></text><rect class="cls-32" x="469.89" y="826.24" width="18.41" height="18.41" rx="1.44" ry="1.44"/><rect class="cls-73" x="470.81" y="827" width="16.89" height="16.89" rx="1.44" ry="1.44"/><text class="cls-52" transform="translate(471.81 840.34)">E2</text><rect class="cls-32" x="124.89" y="854.24" width="18.41" height="18.41" rx="1.44" ry="1.44"/><rect class="cls-74" x="125.81" y="855" width="16.89" height="16.89" rx="1.44" ry="1.44"/><text class="cls-52" transform="translate(126.81 868.34)">E3</text><rect class="cls-32" x="88.89" y="258.24" width="18.41" height="18.41" rx="1.44" ry="1.44"/><rect class="cls-75" x="89.81" y="259" width="16.89" height="16.89" rx="1.44" ry="1.44"/><text class="cls-52" transform="translate(90.81 272.34)">E4</text><path class="cls-76" d="M141.32,79.43h10.52L148.4,95.58C147,102.37,144.14,107,132.88,107c-10.22,0-13.79-2.5-11.75-12.08h10.52a10.6,10.6,0,0,0-.41,4.21c.25.93.9,1.38,2.39,1.38,2.24,0,3.47-1.23,4.09-4.14Z"/><path class="cls-76" d="M156.46,79.43h28.31l-1.38,6.49H165.6l-.76,3.58h16.52L180,96H163.45l-.76,3.58h17.79l-1.38,6.49H150.8Z"/><path class="cls-76" d="M188.24,79.43h22.15c3,0,4.79.26,6.1,1,1.77,1,2.86,3.54,2.25,6.45a7.68,7.68,0,0,1-5.4,6.08l0,.07c1.47.45,2.45,1.79,2.15,4.1l-.79,5.82a5,5,0,0,0,.64,3.13H203.83c-.21-.78,0-1.94.51-5,.31-2-.11-3.17-2-3.17h-7.46l-1.75,8.2H182.57Zm8,11.71h7.46c2.05,0,3.08-.82,3.44-2.5.43-2-.77-2.5-2.53-2.5h-7.31Z"/><path class="cls-76" d="M224.12,79.43h28.31L251,85.92H233.25l-.76,3.58H249L247.63,96H231.11l-.76,3.58h17.79l-1.38,6.49h-28.3Z"/><path class="cls-76" d="M249.68,100.43l19-14.28H253.8l1.43-6.71h29.05L283,85.25l-18.59,14.1h15.18l-1.43,6.71H248.48Z"/><rect class="cls-32" x="114.33" y="105.01" width="174" height="19"/><rect class="cls-32" x="118.33" y="35.01" width="1" height="8" transform="translate(10.83 -24.06) rotate(12.11)"/></g></svg>