<svg xmlns="http://www.w3.org/2000/svg" width="391.8" height="519.74" viewBox="-14.193 -11.794 19.59 25.987"><style>
	.line {
		stroke: #333;
		stroke-width: .09;
		fill: none;
		stroke-linejoin: round;
		stroke-linecap: round;
	}
	.station {
		stroke: none;
	}
	.transit {
		stroke: #555;
		stroke-width: .05;
		fill: #fff;
	}
</style><g><path class="line 1" style="stroke: #00A651;" d="M-11.994 -4.797L-11.194 -3.998"></path><path class="line 1" style="stroke: #00A651;" d="M-11.194 -3.998L-10.394 -3.198"></path><path class="line 1" style="stroke: #00A651;" d="M-10.394 -3.198L-9.595 -2.399"></path><path class="line 1" style="stroke: #00A651;" d="M-9.595 -2.399L-8.795 -1.599"></path><path class="line 1" style="stroke: #00A651;" d="M-8.795 -1.599L-7.996 -0.8"></path><path class="line 1" style="stroke: #00A651;" d="M-7.996 -0.8L-7.996 0"></path><path class="line 1" style="stroke: #00A651;" d="M-7.996 0L-7.996 0.8"></path><path class="line 1" style="stroke: #00A651;" d="M-7.996 0.8L-7.996 1.599"></path><path class="line 1" style="stroke: #00A651;" d="M-7.996 1.599L-7.196 1.599"></path><path class="line 1" style="stroke: #00A651;" d="M-7.196 1.599L-6.397 1.599"></path><path class="line 1" style="stroke: #00A651;" d="M-6.397 1.599L-5.597 1.599"></path><path class="line 1" style="stroke: #00A651;" d="M-5.597 1.599L-4.797 1.599"></path><path class="line 1" style="stroke: #00A651;" d="M-4.797 1.599L-3.998 1.599"></path><path class="line 1" style="stroke: #00A651;" d="M-3.998 1.599L-3.198 1.599"></path><path class="line 1" style="stroke: #00A651;" d="M-3.198 1.599L-2.399 1.599"></path><path class="line 1" style="stroke: #00A651;" d="M-2.399 1.599L-1.599 1.599"></path><path class="line 1" style="stroke: #00A651;" d="M-1.599 1.599L-0.8 0.8"></path><path class="line 1" style="stroke: #00A651;" d="M-0.8 0.8L0 0"></path><path class="line 1" style="stroke: #00A651;" d="M0 0L0.8 -0.8"></path><path class="line 1" style="stroke: #00A651;" d="M0.8 -0.8L1.599 -1.599"></path><path class="line 1" style="stroke: #00A651;" d="M1.599 -1.599L2.399 -2.399"></path><path class="line 1" style="stroke: #00A651;" d="M2.399 -2.399L3.198 -3.198"></path><path class="line 1" style="stroke: #00A651;" d="M3.198 -3.198L3.998 -3.998"></path><path class="line 1" style="stroke: #00A651;" d="M3.998 -3.998L4.797 -4.797"></path><path class="line 1" style="stroke: #00A651;" d="M4.797 -4.797L4.797 -5.597"></path><path class="line 1" style="stroke: #00A651;" d="M4.797 -5.597L4.797 -6.397"></path><path class="line 1" style="stroke: #00A651;" d="M4.797 -6.397L4.797 -7.196"></path><path class="line 1" style="stroke: #00A651;" d="M4.797 -7.196L4.797 -7.996"></path><path class="line 1" style="stroke: #00A651;" d="M4.797 -7.996L4.797 -8.795"></path><path class="line 1" style="stroke: #00A651;" d="M4.797 -8.795L4.797 -9.595"></path><path class="line 1" style="stroke: #00A651;" d="M4.797 -9.595L3.998 -10.394"></path><path class="line 2" style="stroke: #EE1C25;" d="M2.399 6.397L3.198 5.597"></path><path class="line 2" style="stroke: #EE1C25;" d="M3.27 5.597L3.27 4.797"></path><path class="line 3" style="stroke: #006DB1;" d="M3.127 5.597L3.127 4.797"></path><path class="line 2" style="stroke: #EE1C25;" d="M3.249 4.747L2.449 3.947"></path><path class="line 3" style="stroke: #006DB1;" d="M3.148 4.848L2.348 4.048"></path><path class="line 2" style="stroke: #EE1C25;" d="M2.449 3.947L1.65 3.148"></path><path class="line 3" style="stroke: #006DB1;" d="M2.348 4.048L1.549 3.249"></path><path class="line 2" style="stroke: #EE1C25;" d="M1.65 3.148L0.85 2.348"></path><path class="line 3" style="stroke: #006DB1;" d="M1.549 3.249L0.749 2.449"></path><path class="line 2" style="stroke: #EE1C25;" d="M0.85 2.348L0.051 1.549"></path><path class="line 3" style="stroke: #006DB1;" d="M0.749 2.449L-0.051 1.65"></path><path class="line 2" style="stroke: #EE1C25;" d="M0.051 1.549L-0.749 0.749"></path><path class="line 3" style="stroke: #006DB1;" d="M-0.051 1.65L-0.85 0.85"></path><path class="line 2" style="stroke: #EE1C25;" d="M-0.8 0.8L-0.8 0"></path><path class="line 2" style="stroke: #EE1C25;" d="M-0.8 0L-0.8 -0.8"></path><path class="line 2" style="stroke: #EE1C25;" d="M-0.8 -0.8L-0.8 -1.599"></path><path class="line 2" style="stroke: #EE1C25;" d="M-0.8 -1.599L-0.8 -2.399"></path><path class="line 2" style="stroke: #EE1C25;" d="M-0.8 -2.399L-0.8 -3.198"></path><path class="line 2" style="stroke: #EE1C25;" d="M-0.8 -3.198L-0.8 -3.998"></path><path class="line 2" style="stroke: #EE1C25;" d="M-0.8 -3.998L-0.8 -4.797"></path><path class="line 2" style="stroke: #EE1C25;" d="M-0.8 -4.797L-0.8 -5.597"></path><path class="line 2" style="stroke: #EE1C25;" d="M-0.8 -5.597L-0.8 -6.397"></path><path class="line 2" style="stroke: #EE1C25;" d="M-0.8 -6.397L-0.8 -7.196"></path><path class="line 2" style="stroke: #EE1C25;" d="M-0.8 -7.196L-1.599 -7.996"></path><path class="line 2" style="stroke: #EE1C25;" d="M-1.599 -7.996L-2.399 -8.795"></path><path class="line 2" style="stroke: #EE1C25;" d="M-2.399 -8.795L-3.198 -9.595"></path><path class="line 2" style="stroke: #EE1C25;" d="M-3.198 -9.595L-3.998 -10.394"></path><path class="line 2" style="stroke: #EE1C25;" d="M-3.998 -10.394L-4.797 -11.194"></path><path class="line 2" style="stroke: #EE1C25;" d="M-4.797 -11.194L-5.597 -11.194"></path><path class="line 2" style="stroke: #EE1C25;" d="M-5.597 -11.194L-6.397 -11.194"></path><path class="line 3" style="stroke: #006DB1;" d="M-3.198 13.593L-2.399 12.793"></path><path class="line 3" style="stroke: #006DB1;" d="M-2.399 12.793L-1.599 11.994"></path><path class="line 3" style="stroke: #006DB1;" d="M-1.599 11.994L-0.8 11.194"></path><path class="line 3" style="stroke: #006DB1;" d="M-0.8 11.194L0 10.394"></path><path class="line 3" style="stroke: #006DB1;" d="M0 10.394L0.8 9.595"></path><path class="line 3" style="stroke: #006DB1;" d="M0.8 9.595L1.599 8.795"></path><path class="line 3" style="stroke: #006DB1;" d="M1.599 8.795L2.399 7.996"></path><path class="line 3" style="stroke: #006DB1;" d="M2.399 7.996L3.198 7.196"></path><path class="line 3" style="stroke: #006DB1;" d="M3.198 7.196L3.198 5.597"></path><path class="line 3" style="stroke: #006DB1;" d="M-0.8 0.8L-1.599 0"></path><path class="line 3" style="stroke: #006DB1;" d="M-1.599 0L-2.399 -0.8"></path><path class="line 3" style="stroke: #006DB1;" d="M-2.399 -0.8L-3.198 -1.599"></path><path class="line 3" style="stroke: #006DB1;" d="M-3.198 -1.599L-3.998 -2.399"></path><path class="line 3" style="stroke: #006DB1;" d="M-3.998 -2.399L-4.797 -3.198"></path><path class="line 3" style="stroke: #006DB1;" d="M-4.797 -3.198L-5.597 -3.998"></path><path class="line 3" style="stroke: #006DB1;" d="M-5.597 -3.998L-6.397 -4.797"></path><path class="line 3" style="stroke: #006DB1;" d="M-6.397 -4.797L-7.196 -5.597"></path><path class="line 3" style="stroke: #006DB1;" d="M-7.196 -5.597L-7.996 -6.397"></path><path class="line 3" style="stroke: #006DB1;" d="M-7.996 -6.397L-8.795 -7.196"></path><path class="line 3" style="stroke: #006DB1;" d="M-8.795 -7.196L-9.595 -7.996"></path><path class="line 3" style="stroke: #006DB1;" d="M-9.595 -7.996L-10.394 -8.795"></path><path class="line 3" style="stroke: #006DB1;" d="M-10.394 -8.795L-11.194 -9.595"></path><path class="line 3" style="stroke: #006DB1;" d="M-11.194 -9.595L-11.994 -9.595"></path><path class="line 3" style="stroke: #006DB1;" d="M-11.994 -9.595L-12.793 -9.595"></path><path class="line 3" style="stroke: #006DB1;" d="M-12.793 -9.595L-13.593 -9.595"></path><circle class="station" data-id="296396199" data-label="Bouffay" r="0.1" fill="#00A651"></circle><circle class="station" data-id="302674011" data-label="Moutonnerie" cx="3.198" cy="-3.198" r="0.1" fill="#00A651"></circle><circle class="station" data-id="302674015" data-label="Manufacture" cx="2.399" cy="-2.399" r="0.1" fill="#00A651"></circle><circle class="station" data-id="302674023" data-label="Gare SNCF Nord" cx="1.599" cy="-1.599" r="0.1" fill="#00A651"></circle><circle class="station" data-id="302674029" data-label="Duchesse Anne - Château" cx="0.8" cy="-0.8" r="0.1" fill="#00A651"></circle><circle class="station" data-id="302677573" data-label="Hôpital Bellier" cx="3.998" cy="-3.998" r="0.1" fill="#00A651"></circle><circle class="station" data-id="302677676" data-label="Boulevard de Doulon" cx="4.797" cy="-4.797" r="0.1" fill="#00A651"></circle><circle class="station" data-id="302678221" data-label="Pin Sec" cx="4.797" cy="-7.996" r="0.1" fill="#00A651"></circle><circle class="station" data-id="302678467" data-label="Halvêque" cx="4.797" cy="-9.595" r="0.1" fill="#00A651"></circle><circle class="station" data-id="302678647" data-label="Beaujoire" cx="3.998" cy="-10.394" r="0.1" fill="#00A651"></circle><circle class="station" data-id="302679787" data-label="Souillarderie" cx="4.797" cy="-7.196" r="0.1" fill="#00A651"></circle><circle class="station" data-id="302680657" data-label="Landreau" cx="4.797" cy="-6.397" r="0.1" fill="#00A651"></circle><circle class="station" data-id="302680659" data-label="Mairie de Doulon" cx="4.797" cy="-5.597" r="0.1" fill="#00A651"></circle><circle class="station transit" data-id="1573642014" data-label="Commerce" cx="-0.8" cy="0.8" r="0.185" fill="#333"></circle><circle class="station" data-id="1573642018" data-label="Médiathèque" cx="-1.599" cy="1.599" r="0.1" fill="#00A651"></circle><circle class="station" data-id="1573645606" data-label="Chantiers Navals" cx="-2.399" cy="1.599" r="0.1" fill="#00A651"></circle><circle class="station" data-id="1573800311" data-label="Gare Maritime" cx="-3.198" cy="1.599" r="0.1" fill="#00A651"></circle><circle class="station" data-id="1573830585" data-label="Croix Bonneau" cx="-5.597" cy="1.599" r="0.1" fill="#00A651"></circle><circle class="station" data-id="1573830586" data-label="Du Chaffault" cx="-3.998" cy="1.599" r="0.1" fill="#00A651"></circle><circle class="station" data-id="1573830595" data-label="Égalité" cx="-4.797" cy="1.599" r="0.1" fill="#00A651"></circle><circle class="station" data-id="1573909399" data-label="Lauriers" cx="-7.196" cy="1.599" r="0.1" fill="#00A651"></circle><circle class="station" data-id="1573913309" data-label="Jean Moulin" cx="-6.397" cy="1.599" r="0.1" fill="#00A651"></circle><circle class="station" data-id="1573913312" data-label="Romain Rolland" cx="-7.996" cy="1.599" r="0.1" fill="#00A651"></circle><circle class="station" data-id="1574613517" data-label="François Mitterrand" cx="-11.994" cy="-4.797" r="0.1" fill="#00A651"></circle><circle class="station" data-id="1574613532" data-label="Schoelcher" cx="-10.394" cy="-3.198" r="0.1" fill="#00A651"></circle><circle class="station" data-id="1574613537" data-label="Tourmaline" cx="-11.194" cy="-3.998" r="0.1" fill="#00A651"></circle><circle class="station" data-id="1574627200" data-label="Frachon" cx="-9.595" cy="-2.399" r="0.1" fill="#00A651"></circle><circle class="station" data-id="1574627206" data-label="Mendès France - Bellevue" cx="-7.996" cy="0.8" r="0.1" fill="#00A651"></circle><circle class="station" data-id="1574627229" data-label="Neruda" cx="-8.795" cy="-1.599" r="0.1" fill="#00A651"></circle><circle class="station" data-id="1574627233" data-label="Romanet" cx="-7.996" r="0.1" fill="#00A651"></circle><circle class="station" data-id="1574627238" data-label="Tertre" cx="-7.996" cy="-0.8" r="0.1" fill="#00A651"></circle><circle class="station" data-id="1937874559" data-label="Haluchère-Batignolles" cx="4.797" cy="-8.795" r="0.1" fill="#00A651"></circle><circle class="station transit" data-id="1702974087" data-label="Aimé Delrue" cx="0.8" cy="2.399" r="0.185" fill="#333"></circle><circle class="station" data-id="1702974859" data-label="Boissière" cx="-2.399" cy="-8.795" r="0.1" fill="#EE1C25"></circle><circle class="station" data-id="1702975159" data-label="Bourgeonnière" cx="-1.599" cy="-7.996" r="0.1" fill="#EE1C25"></circle><circle class="station" data-id="1702975310" data-label="Chêne des Anglais" cx="-3.998" cy="-10.394" r="0.1" fill="#EE1C25"></circle><circle class="station" data-id="1702975371" data-label="50 Otages" cx="-0.8" cy="-0.8" r="0.1" fill="#EE1C25"></circle><circle class="station" data-id="1702975490" data-label="Facultés" cx="-0.8" cy="-5.597" r="0.1" fill="#EE1C25"></circle><circle class="station" data-id="1702975501" data-label="Gare de Pont-Rousseau" cx="2.399" cy="6.397" r="0.1" fill="#EE1C25"></circle><circle class="station transit" data-id="1702975508" data-label="Hôtel Dieu" cy="1.599" r="0.185" fill="#333"></circle><circle class="station" data-id="1702975509" data-label="Le Cardo" cx="-5.597" cy="-11.194" r="0.1" fill="#EE1C25"></circle><circle class="station transit" data-id="1702975511" data-label="Mangin" cx="3.198" cy="4.797" r="0.185" fill="#333"></circle><circle class="station" data-id="1702975517" data-label="Michelet Sciences" cx="-0.8" cy="-3.998" r="0.1" fill="#EE1C25"></circle><circle class="station" data-id="1702975537" data-label="Morrhonnière Petit Port" cx="-0.8" cy="-4.797" r="0.1" fill="#EE1C25"></circle><circle class="station" data-id="1702975614" data-label="Motte Rouge" cx="-0.8" cy="-2.399" r="0.1" fill="#EE1C25"></circle><circle class="station" data-id="1702975800" data-label="Orvault Grand Val" cx="-6.397" cy="-11.194" r="0.1" fill="#EE1C25"></circle><circle class="station transit" data-id="1702975854" data-label="Pirmil" cx="3.198" cy="5.597" r="0.185" fill="#333"></circle><circle class="station" data-id="1702976007" data-label="Place du Cirque" cx="-0.8" r="0.1" fill="#EE1C25"></circle><circle class="station" data-id="1702976165" data-label="Recteur Schmitt" cx="-0.8" cy="-7.196" r="0.1" fill="#EE1C25"></circle><circle class="station" data-id="1702976271" data-label="René Cassin" cx="-4.797" cy="-11.194" r="0.1" fill="#EE1C25"></circle><circle class="station" data-id="1702976363" data-label="Saint-Félix" cx="-0.8" cy="-3.198" r="0.1" fill="#EE1C25"></circle><circle class="station" data-id="1702976438" data-label="Saint-Mihiel" cx="-0.8" cy="-1.599" r="0.1" fill="#EE1C25"></circle><circle class="station" data-id="1702976492" data-label="Santos Dumont" cx="-3.198" cy="-9.595" r="0.1" fill="#EE1C25"></circle><circle class="station transit" data-id="1702976632" data-label="Vincent Gâche" cx="1.599" cy="3.198" r="0.185" fill="#333"></circle><circle class="station transit" data-id="1702976741" data-label="Wattignies" cx="2.399" cy="3.998" r="0.185" fill="#333"></circle><circle class="station" data-id="1703027793" data-label="École Centrale Audencia" cx="-0.8" cy="-6.397" r="0.1" fill="#EE1C25"></circle><circle class="station" data-id="289439988" data-label="Longchamp" cx="-7.196" cy="-5.597" r="0.1" fill="#006DB1"></circle><circle class="station" data-id="289439989" data-label="Alexandre Vincent Sainte-Thérèse" cx="-6.397" cy="-4.797" r="0.1" fill="#006DB1"></circle><circle class="station" data-id="289439990" data-label="Rond-Point de Vannes" cx="-5.597" cy="-3.998" r="0.1" fill="#006DB1"></circle><circle class="station" data-id="289439993" data-label="Félix Faure" cx="-4.797" cy="-3.198" r="0.1" fill="#006DB1"></circle><circle class="station" data-id="299132281" data-label="Beauséjour" cx="-7.996" cy="-6.397" r="0.1" fill="#006DB1"></circle><circle class="station" data-id="299132282" data-label="Plaisance" cx="-8.795" cy="-7.196" r="0.1" fill="#006DB1"></circle><circle class="station" data-id="299132283" data-label="Ferrière" cx="-9.595" cy="-7.996" r="0.1" fill="#006DB1"></circle><circle class="station" data-id="299132295" data-label="Jean Rostand" cx="-10.394" cy="-8.795" r="0.1" fill="#006DB1"></circle><circle class="station" data-id="299132334" data-label="Bignon" cx="-11.194" cy="-9.595" r="0.1" fill="#006DB1"></circle><circle class="station" data-id="313373980" data-label="Sillon de Bretagne" cx="-12.793" cy="-9.595" r="0.1" fill="#006DB1"></circle><circle class="station" data-id="313373994" data-label="Orvault Morlière" cx="-11.994" cy="-9.595" r="0.1" fill="#006DB1"></circle><circle class="station" data-id="327089202" data-label="Marcel Paul" cx="-13.593" cy="-9.595" r="0.1" fill="#006DB1"></circle><circle class="station" data-id="1702974649" data-label="Balinière" cx="1.599" cy="8.795" r="0.1" fill="#006DB1"></circle><circle class="station" data-id="1702975260" data-label="Château de Rezé Place François Mitterrand" cx="0.8" cy="9.595" r="0.1" fill="#006DB1"></circle><circle class="station" data-id="1702975475" data-label="Espace Diderot" cy="10.394" r="0.1" fill="#006DB1"></circle><circle class="station" data-id="1702975510" data-label="Les Couëts" cx="-2.399" cy="12.793" r="0.1" fill="#006DB1"></circle><circle class="station" data-id="1702975735" data-label="Neustrie" cx="-3.198" cy="13.593" r="0.1" fill="#006DB1"></circle><circle class="station" data-id="1702976122" data-label="Pont-Rousseau Martyrs" cx="3.198" cy="7.196" r="0.1" fill="#006DB1"></circle><circle class="station" data-id="1702976549" data-label="Trocardière" cx="-0.8" cy="11.194" r="0.1" fill="#006DB1"></circle><circle class="station" data-id="1703027794" data-label="8 Mai" cx="2.399" cy="7.996" r="0.1" fill="#006DB1"></circle><circle class="station" data-id="1813689197" data-label="Viarme-Talensac" cx="-3.198" cy="-1.599" r="0.1" fill="#006DB1"></circle><circle class="station" data-id="1813689200" data-label="Jean Jaurès" cx="-2.399" cy="-0.8" r="0.1" fill="#006DB1"></circle><circle class="station" data-id="2887317993" data-label="Grande Ouche" cx="-1.599" cy="11.994" r="0.1" fill="#006DB1"></circle><circle class="station" data-id="2901345074" data-label="Bretagne" cx="-1.599" r="0.1" fill="#006DB1"></circle><circle class="station" data-id="2914948341" data-label="Poitou" cx="-3.998" cy="-2.399" r="0.1" fill="#006DB1"></circle></g></svg>