<svg xmlns="http://www.w3.org/2000/svg" width="27.32" height="33.38" viewBox="36.014 -6.971 1.366 1.669"><style>
	.line {
		stroke: #333;
		stroke-width: .09;
		fill: none;
		stroke-linejoin: round;
		stroke-linecap: round;
	}
	.station {
		stroke: none;
	}
	.transit {
		stroke: #555;
		stroke-width: .05;
		fill: #fff;
	}
</style><g transform="translate(0,0.669) scale(1,-1)"><path class="line undefined" style="stroke: #777;" d="M36.636 -6.209L36.632 -6.207"></path><path class="line undefined" style="stroke: #777;" d="M36.709 -6.086L36.713 -6.089"></path><path class="line undefined" style="stroke: #777;" d="M36.739 -6.127L36.738 -6.121"></path><path class="line undefined" style="stroke: #777;" d="M36.6 -6.159L36.602 -6.165"></path><path class="line undefined" style="stroke: #777;" d="M36.812 -6.138L36.812 -6.131"></path><path class="line undefined" style="stroke: #777;" d="M36.669 -6.133L36.669 -6.14"></path><path class="line undefined" style="stroke: #777;" d="M36.526 -6.142L36.526 -6.135"></path><path class="line undefined" style="stroke: #777;" d="M36.734 -6.162L36.738 -6.152"></path><path class="line undefined" style="stroke: #777;" d="M36.608 -6.094L36.603 -6.104"></path><path class="line undefined" style="stroke: #777;" d="M36.744 -6.129L36.745 -6.117"></path><path class="line undefined" style="stroke: #777;" d="M36.603 -6.106L36.602 -6.118"></path><path class="line undefined" style="stroke: #777;" d="M36.741 -6.137L36.743 -6.13"></path><path class="line undefined" style="stroke: #777;" d="M36.61 -6.08L36.607 -6.086"></path><path class="line undefined" style="stroke: #777;" d="M36.715 -6.165L36.725 -6.159"></path><path class="line undefined" style="stroke: #777;" d="M36.648 -6.038L36.638 -6.045"></path><path class="line undefined" style="stroke: #777;" d="M36.649 -6.16L36.656 -6.164"></path><path class="line undefined" style="stroke: #777;" d="M36.73 -6.042L36.724 -6.038"></path><path class="line undefined" style="stroke: #777;" d="M36.647 -6.157L36.652 -6.161"></path><path class="line undefined" style="stroke: #777;" d="M36.744 -6.052L36.739 -6.048"></path><path class="line undefined" style="stroke: #777;" d="M36.698 -6.107L36.704 -6.113"></path><path class="line undefined" style="stroke: #777;" d="M36.867 -5.974L36.869 -5.977"></path><path class="line undefined" style="stroke: #777;" d="M36.76 -6.069L36.758 -6.067"></path><path class="line undefined" style="stroke: #777;" d="M36.652 -6.162L36.649 -6.159"></path><path class="line undefined" style="stroke: #777;" d="M36.541 -6.252L36.543 -6.254"></path><path class="line undefined" style="stroke: #777;" d="M36.777 -6.109L36.778 -6.121"></path><path class="line undefined" style="stroke: #777;" d="M36.636 -6.134L36.635 -6.122"></path><path class="line undefined" style="stroke: #777;" d="M36.774 -6.152L36.77 -6.165"></path><path class="line undefined" style="stroke: #777;" d="M36.635 -6.117L36.64 -6.104"></path><path class="line undefined" style="stroke: #777;" d="M36.762 -6.181L36.758 -6.187"></path><path class="line undefined" style="stroke: #777;" d="M36.639 -6.108L36.643 -6.101"></path><path class="line undefined" style="stroke: #777;" d="M36.752 -6.195L36.748 -6.198"></path><path class="line undefined" style="stroke: #777;" d="M36.641 -6.104L36.645 -6.1"></path><path class="line undefined" style="stroke: #777;" d="M36.711 -6.221L36.701 -6.223"></path><path class="line undefined" style="stroke: #777;" d="M36.668 -6.084L36.679 -6.082"></path><path class="line undefined" style="stroke: #777;" d="M36.653 -6.218L36.644 -6.213"></path><path class="line undefined" style="stroke: #777;" d="M36.706 -6.085L36.715 -6.089"></path><path class="line undefined" style="stroke: #777;" d="M36.704 -6.113L36.698 -6.107"></path><path class="line undefined" style="stroke: #777;" d="M36.653 -6.211L36.658 -6.213"></path><path class="line undefined" style="stroke: #777;" d="M36.708 -6.079L36.703 -6.077"></path><path class="line undefined" style="stroke: #777;" d="M36.66 -6.214L36.663 -6.215"></path><path class="line undefined" style="stroke: #777;" d="M36.708 -6.079L36.705 -6.078"></path><path class="line undefined" style="stroke: #777;" d="M36.749 -6.18L36.751 -6.176"></path><path class="line undefined" style="stroke: #777;" d="M36.624 -6.11L36.622 -6.114"></path><path class="line undefined" style="stroke: #777;" d="M36.759 -6.14L36.759 -6.136"></path><path class="line undefined" style="stroke: #777;" d="M36.616 -6.143L36.616 -6.147"></path><path class="line undefined" style="stroke: #777;" d="M36.754 -6.112L36.752 -6.11"></path><path class="line undefined" style="stroke: #777;" d="M36.62 -6.165L36.622 -6.167"></path><path class="line undefined" style="stroke: #777;" d="M36.813 -6.471L36.817 -6.47"></path><path class="line undefined" style="stroke: #777;" d="M36.766 -6.336L36.762 -6.338"></path><path class="line undefined" style="stroke: #777;" d="M36.712 -6.204L36.716 -6.203"></path><path class="line undefined" style="stroke: #777;" d="M36.665 -6.069L36.661 -6.07"></path><path class="line undefined" style="stroke: #777;" d="M36.61 -5.937L36.614 -5.935"></path><path class="line undefined" style="stroke: #777;" d="M36.564 -5.802L36.56 -5.803"></path><path class="line undefined" style="stroke: #777;" d="M36.761 -6.124L36.759 -6.115"></path><path class="line undefined" style="stroke: #777;" d="M36.618 -6.139L36.62 -6.148"></path><path class="line undefined" style="stroke: #777;" d="M36.72 -6.339L36.712 -6.341"></path><path class="line undefined" style="stroke: #777;" d="M36.691 -6.199L36.699 -6.198"></path><path class="line undefined" style="stroke: #777;" d="M36.678 -6.057L36.671 -6.058"></path><path class="line undefined" style="stroke: #777;" d="M36.65 -5.917L36.658 -5.915"></path><path class="line undefined" style="stroke: #777;" d="M36.722 -6.187L36.72 -6.188"></path><path class="line undefined" style="stroke: #777;" d="M36.638 -6.071L36.64 -6.07"></path><path class="line undefined" style="stroke: #777;" d="M36.735 -6.174L36.732 -6.178"></path><path class="line undefined" style="stroke: #777;" d="M36.621 -6.088L36.623 -6.085"></path><path class="line undefined" style="stroke: #777;" d="M36.744 -6.111L36.746 -6.117"></path><path class="line undefined" style="stroke: #777;" d="M36.61 -6.161L36.609 -6.155"></path><path class="line undefined" style="stroke: #777;" d="M36.75 -6.144L36.749 -6.149"></path><path class="line undefined" style="stroke: #777;" d="M36.607 -6.14L36.607 -6.135"></path><path class="line undefined" style="stroke: #777;" d="M36.772 -6.125L36.771 -6.119"></path><path class="line undefined" style="stroke: #777;" d="M36.631 -6.15L36.633 -6.157"></path><path class="line undefined" style="stroke: #777;" d="M36.771 -6.121L36.77 -6.117"></path><path class="line undefined" style="stroke: #777;" d="M36.63 -6.145L36.631 -6.149"></path><path class="line undefined" style="stroke: #777;" d="M36.766 -6.103L36.764 -6.098"></path><path class="line undefined" style="stroke: #777;" d="M36.632 -6.154L36.635 -6.159"></path><path class="line undefined" style="stroke: #777;" d="M36.88 -6.013L36.878 -6.01"></path><path class="line undefined" style="stroke: #777;" d="M36.757 -6.086L36.759 -6.088"></path><path class="line undefined" style="stroke: #777;" d="M36.638 -6.164L36.636 -6.161"></path><path class="line undefined" style="stroke: #777;" d="M36.514 -6.236L36.516 -6.239"></path><path class="line undefined" style="stroke: #777;" d="M36.698 -6.195L36.695 -6.195"></path><path class="line undefined" style="stroke: #777;" d="M36.692 -6.052L36.695 -6.052"></path><path class="line undefined" style="stroke: #777;" d="M36.741 -6.177L36.736 -6.181"></path><path class="line undefined" style="stroke: #777;" d="M36.642 -6.074L36.646 -6.07"></path><path class="line undefined" style="stroke: #777;" d="M36.681 -6.129L36.678 -6.124"></path><path class="line undefined" style="stroke: #777;" d="M36.656 -6.192L36.651 -6.191"></path><path class="line undefined" style="stroke: #777;" d="M36.695 -6.055L36.699 -6.057"></path><path class="line undefined" style="stroke: #777;" d="M36.678 -6.124L36.681 -6.129"></path><path class="line undefined" style="stroke: #777;" d="M36.643 -6.188L36.647 -6.19"></path><path class="line undefined" style="stroke: #777;" d="M36.708 -6.06L36.704 -6.058"></path><path class="line undefined" style="stroke: #777;" d="M36.744 -6.1L36.746 -6.105"></path><path class="line undefined" style="stroke: #777;" d="M36.612 -6.155L36.61 -6.15"></path><path class="line undefined" style="stroke: #777;" d="M36.669 -6.133L36.672 -6.129"></path><path class="line undefined" style="stroke: #777;" d="M36.672 -6.129L36.672 -6.133"></path><path class="line undefined" style="stroke: #777;" d="M36.663 -6.275L36.665 -6.275"></path><path class="line undefined" style="stroke: #777;" d="M36.672 -6.133L36.674 -6.133"></path><path class="line undefined" style="stroke: #777;" d="M36.682 -5.99L36.68 -5.99"></path><path class="line undefined" style="stroke: #777;" d="M36.674 -6.133L36.675 -6.137"></path><path class="line undefined" style="stroke: #777;" d="M36.675 -6.137L36.676 -6.143"></path><path class="line undefined" style="stroke: #777;" d="M36.676 -6.143L36.672 -6.144"></path><path class="line undefined" style="stroke: #777;" d="M36.672 -6.144L36.672 -6.14"></path><path class="line undefined" style="stroke: #777;" d="M36.672 -6.14L36.669 -6.14"></path><path class="line undefined" style="stroke: #777;" d="M36.671 -6.146L36.668 -6.149"></path><path class="line undefined" style="stroke: #777;" d="M36.668 -6.149L36.671 -6.151"></path><path class="line undefined" style="stroke: #777;" d="M36.671 -6.151L36.671 -6.146"></path><path class="line undefined" style="stroke: #777;" d="M36.748 -6.104L36.75 -6.109"></path><path class="line undefined" style="stroke: #777;" d="M36.631 -6.187L36.628 -6.182"></path><path class="line undefined" style="stroke: #777;" d="M36.691 -6.148L36.693 -6.15"></path><path class="line undefined" style="stroke: #777;" d="M36.655 -6.21L36.657 -6.211"></path><path class="line undefined" style="stroke: #777;" d="M36.733 -6.091L36.731 -6.09"></path><path class="line undefined" style="stroke: #777;" d="M36.695 -6.151L36.695 -6.16"></path><path class="line undefined" style="stroke: #777;" d="M36.695 -6.16L36.692 -6.16"></path><path class="line undefined" style="stroke: #777;" d="M36.692 -6.16L36.692 -6.157"></path><path class="line undefined" style="stroke: #777;" d="M36.692 -6.157L36.695 -6.151"></path><path class="line undefined" style="stroke: #777;" d="M36.693 -6.15L36.691 -6.148"></path><path class="line undefined" style="stroke: #777;" d="M36.752 -6.185L36.755 -6.18"></path><path class="line undefined" style="stroke: #777;" d="M36.638 -6.098L36.635 -6.102"></path><path class="line undefined" style="stroke: #777;" d="M36.758 -6.174L36.76 -6.171"></path><path class="line undefined" style="stroke: #777;" d="M36.636 -6.101L36.634 -6.104"></path><path class="line undefined" style="stroke: #777;" d="M36.725 -6.202L36.728 -6.201"></path><path class="line undefined" style="stroke: #777;" d="M36.674 -6.069L36.671 -6.07"></path><path class="line undefined" style="stroke: #777;" d="M36.732 -6.199L36.735 -6.198"></path><path class="line undefined" style="stroke: #777;" d="M36.674 -6.069L36.671 -6.07"></path><path class="line undefined" style="stroke: #777;" d="M36.771 -6.105L36.769 -6.102"></path><path class="line undefined" style="stroke: #777;" d="M36.638 -6.158L36.639 -6.161"></path><path class="line undefined" style="stroke: #777;" d="M36.775 -6.133L36.775 -6.13"></path><path class="line undefined" style="stroke: #777;" d="M36.632 -6.123L36.632 -6.126"></path><path class="line undefined" style="stroke: #777;" d="M36.767 -6.094L36.765 -6.09"></path><path class="line undefined" style="stroke: #777;" d="M36.637 -6.154L36.64 -6.158"></path><path class="line undefined" style="stroke: #777;" d="M36.765 -6.09L36.764 -6.087"></path><path class="line undefined" style="stroke: #777;" d="M36.636 -6.151L36.637 -6.154"></path><path class="line undefined" style="stroke: #777;" d="M36.773 -6.131L36.775 -6.124"></path><path class="line undefined" style="stroke: #777;" d="M36.636 -6.089L36.635 -6.096"></path><path class="line undefined" style="stroke: #777;" d="M36.774 -6.086L36.773 -6.082"></path><path class="line undefined" style="stroke: #777;" d="M36.636 -6.123L36.637 -6.127"></path><path class="line undefined" style="stroke: #777;" d="M36.704 -6.102L36.702 -6.104"></path><path class="line undefined" style="stroke: #777;" d="M36.702 -6.104L36.699 -6.102"></path><path class="line undefined" style="stroke: #777;" d="M36.699 -6.102L36.695 -6.1"></path><path class="line undefined" style="stroke: #777;" d="M36.695 -6.1L36.694 -6.096"></path><path class="line undefined" style="stroke: #777;" d="M36.73 -6.158L36.728 -6.159"></path><path class="line undefined" style="stroke: #777;" d="M36.655 -6.036L36.658 -6.035"></path><path class="line undefined" style="stroke: #777;" d="M36.706 -6.168L36.701 -6.169"></path><path class="line undefined" style="stroke: #777;" d="M36.672 -6.029L36.677 -6.028"></path><path class="line undefined" style="stroke: #777;" d="M36.694 -6.096L36.697 -6.096"></path><path class="line undefined" style="stroke: #777;" d="M36.697 -6.096L36.7 -6.097"></path><path class="line undefined" style="stroke: #777;" d="M36.7 -6.097L36.704 -6.102"></path><path class="line undefined" style="stroke: #777;" d="M36.711 -6.186L36.708 -6.187"></path><path class="line undefined" style="stroke: #777;" d="M36.68 -6.046L36.683 -6.046"></path><path class="line undefined" style="stroke: #777;" d="M36.754 -6.078L36.751 -6.074"></path><path class="line undefined" style="stroke: #777;" d="M36.631 -6.151L36.634 -6.155"></path><path class="line undefined" style="stroke: #777;" d="M36.691 -6.112L36.689 -6.111"></path><path class="line undefined" style="stroke: #777;" d="M36.689 -6.111L36.687 -6.11"></path><path class="line undefined" style="stroke: #777;" d="M36.687 -6.11L36.687 -6.102"></path><path class="line undefined" style="stroke: #777;" d="M36.829 -6.1L36.829 -6.097"></path><path class="line undefined" style="stroke: #777;" d="M36.687 -6.102L36.687 -6.099"></path><path class="line undefined" style="stroke: #777;" d="M36.544 -6.1L36.544 -6.104"></path><path class="line undefined" style="stroke: #777;" d="M36.687 -6.099L36.689 -6.103"></path><path class="line undefined" style="stroke: #777;" d="M36.689 -6.103L36.692 -6.106"></path><path class="line undefined" style="stroke: #777;" d="M36.817 -6.176L36.814 -6.18"></path><path class="line undefined" style="stroke: #777;" d="M36.689 -6.111L36.692 -6.106"></path><path class="line undefined" style="stroke: #777;" d="M36.567 -6.037L36.564 -6.041"></path><path class="line undefined" style="stroke: #777;" d="M36.689 -6.111L36.691 -6.112"></path><path class="line undefined" style="stroke: #777;" d="M36.675 -6.192L36.672 -6.192"></path><path class="line undefined" style="stroke: #777;" d="M36.686 -6.049L36.688 -6.05"></path><path class="line undefined" style="stroke: #777;" d="M36.679 -6.12L36.678 -6.116"></path><path class="line undefined" style="stroke: #777;" d="M36.678 -6.116L36.677 -6.11"></path><path class="line undefined" style="stroke: #777;" d="M36.677 -6.11L36.677 -6.105"></path><path class="line undefined" style="stroke: #777;" d="M36.677 -6.105L36.68 -6.105"></path><path class="line undefined" style="stroke: #777;" d="M36.68 -6.105L36.683 -6.112"></path><path class="line undefined" style="stroke: #777;" d="M36.683 -6.112L36.681 -6.111"></path><path class="line undefined" style="stroke: #777;" d="M36.681 -6.111L36.68 -6.117"></path><path class="line undefined" style="stroke: #777;" d="M36.68 -6.117L36.679 -6.12"></path><path class="line undefined" style="stroke: #777;" d="M36.682 -6.203L36.685 -6.203"></path><path class="line undefined" style="stroke: #777;" d="M36.659 -6.062L36.656 -6.063"></path><path class="line undefined" style="stroke: #777;" d="M36.662 -6.203L36.665 -6.204"></path><path class="line undefined" style="stroke: #777;" d="M36.688 -6.063L36.686 -6.062"></path><path class="line undefined" style="stroke: #777;" d="M36.746 -6.157L36.747 -6.142"></path><path class="line undefined" style="stroke: #777;" d="M36.604 -6.14L36.606 -6.125"></path><path class="line undefined" style="stroke: #777;" d="M36.746 -6.146L36.745 -6.13"></path><path class="line undefined" style="stroke: #777;" d="M36.603 -6.152L36.603 -6.136"></path><path class="line undefined" style="stroke: #777;" d="M36.722 -6.085L36.725 -6.088"></path><path class="line undefined" style="stroke: #777;" d="M36.619 -6.184L36.616 -6.181"></path><path class="line undefined" style="stroke: #777;" d="M36.728 -6.093L36.731 -6.097"></path><path class="line undefined" style="stroke: #777;" d="M36.618 -6.184L36.615 -6.18"></path><path class="line undefined" style="stroke: #777;" d="M36.675 -6.141L36.676 -6.143"></path><path class="line undefined" style="stroke: #777;" d="M36.676 -6.143L36.678 -6.144"></path><path class="line undefined" style="stroke: #777;" d="M36.678 -6.144L36.676 -6.143"></path><path class="line undefined" style="stroke: #777;" d="M36.676 -6.143L36.675 -6.141"></path><path class="line undefined" style="stroke: #777;" d="M36.654 -6.203L36.649 -6.199"></path><path class="line undefined" style="stroke: #777;" d="M36.737 -6.087L36.742 -6.091"></path><path class="line undefined" style="stroke: #777;" d="M36.693 -6.215L36.688 -6.215"></path><path class="line undefined" style="stroke: #777;" d="M36.688 -6.072L36.693 -6.072"></path><path class="line undefined" style="stroke: #777;" d="M36.69 -6.136L36.692 -6.137"></path><path class="line undefined" style="stroke: #777;" d="M36.742 -6.189L36.745 -6.185"></path><path class="line undefined" style="stroke: #777;" d="M36.646 -6.083L36.643 -6.086"></path><path class="line undefined" style="stroke: #777;" d="M36.73 -6.197L36.735 -6.194"></path><path class="line undefined" style="stroke: #777;" d="M36.666 -6.069L36.661 -6.071"></path><path class="line undefined" style="stroke: #777;" d="M36.735 -6.194L36.738 -6.192"></path><path class="line undefined" style="stroke: #777;" d="M36.668 -6.067L36.665 -6.069"></path><path class="line undefined" style="stroke: #777;" d="M36.734 -6.194L36.738 -6.192"></path><path class="line undefined" style="stroke: #777;" d="M36.676 -6.064L36.672 -6.065"></path><path class="line undefined" style="stroke: #777;" d="M36.692 -6.137L36.69 -6.136"></path><path class="line undefined" style="stroke: #777;" d="M36.749 -6.176L36.753 -6.171"></path><path class="line undefined" style="stroke: #777;" d="M36.635 -6.091L36.631 -6.096"></path><path class="line undefined" style="stroke: #777;" d="M36.745 -6.181L36.749 -6.176"></path><path class="line undefined" style="stroke: #777;" d="M36.647 -6.076L36.643 -6.081"></path><path class="line undefined" style="stroke: #777;" d="M36.756 -6.168L36.759 -6.164"></path><path class="line undefined" style="stroke: #777;" d="M36.644 -6.08L36.641 -6.084"></path><path class="line undefined" style="stroke: #777;" d="M36.759 -6.164L36.763 -6.158"></path><path class="line undefined" style="stroke: #777;" d="M36.649 -6.073L36.644 -6.079"></path><path class="line undefined" style="stroke: #777;" d="M36.754 -6.169L36.76 -6.163"></path><path class="line undefined" style="stroke: #777;" d="M36.665 -6.057L36.658 -6.062"></path><path class="line undefined" style="stroke: #777;" d="M36.768 -6.126L36.768 -6.119"></path><path class="line undefined" style="stroke: #777;" d="M36.625 -6.113L36.625 -6.12"></path><path class="line undefined" style="stroke: #777;" d="M36.767 -6.126L36.769 -6.117"></path><path class="line undefined" style="stroke: #777;" d="M36.627 -6.097L36.626 -6.106"></path><path class="line undefined" style="stroke: #777;" d="M36.767 -6.125L36.768 -6.12"></path><path class="line undefined" style="stroke: #777;" d="M36.63 -6.084L36.629 -6.089"></path><path class="line undefined" style="stroke: #777;" d="M36.77 -6.114L36.77 -6.109"></path><path class="line undefined" style="stroke: #777;" d="M36.63 -6.085L36.629 -6.09"></path><path class="line undefined" style="stroke: #777;" d="M36.683 -6.135L36.684 -6.13"></path><path class="line undefined" style="stroke: #777;" d="M36.755 -6.14L36.756 -6.132"></path><path class="line undefined" style="stroke: #777;" d="M36.615 -6.11L36.614 -6.119"></path><path class="line undefined" style="stroke: #777;" d="M36.755 -6.136L36.756 -6.131"></path><path class="line undefined" style="stroke: #777;" d="M36.617 -6.101L36.616 -6.106"></path><path class="line undefined" style="stroke: #777;" d="M36.75 -6.149L36.753 -6.143"></path><path class="line undefined" style="stroke: #777;" d="M36.626 -6.078L36.623 -6.083"></path><path class="line undefined" style="stroke: #777;" d="M36.758 -6.133L36.76 -6.129"></path><path class="line undefined" style="stroke: #777;" d="M36.627 -6.076L36.625 -6.08"></path><path class="line undefined" style="stroke: #777;" d="M36.753 -6.142L36.755 -6.139"></path><path class="line undefined" style="stroke: #777;" d="M36.635 -6.061L36.633 -6.064"></path><path class="line undefined" style="stroke: #777;" d="M36.758 -6.133L36.76 -6.129"></path><path class="line undefined" style="stroke: #777;" d="M36.634 -6.063L36.632 -6.066"></path><path class="line undefined" style="stroke: #777;" d="M36.684 -6.13L36.681 -6.129"></path><path class="line undefined" style="stroke: #777;" d="M36.818 -6.087L36.82 -6.094"></path><path class="line undefined" style="stroke: #777;" d="M36.683 -6.135L36.681 -6.129"></path><path class="line undefined" style="stroke: #777;" d="M36.544 -6.17L36.546 -6.177"></path><path class="line undefined" style="stroke: #777;" d="M36.752 -6.134L36.753 -6.126"></path><path class="line undefined" style="stroke: #777;" d="M36.61 -6.115L36.61 -6.123"></path><path class="line undefined" style="stroke: #777;" d="M36.75 -6.14L36.752 -6.136"></path><path class="line undefined" style="stroke: #777;" d="M36.614 -6.096L36.613 -6.101"></path><path class="line undefined" style="stroke: #777;" d="M36.754 -6.121L36.755 -6.117"></path><path class="line undefined" style="stroke: #777;" d="M36.612 -6.107L36.612 -6.111"></path><path class="line undefined" style="stroke: #777;" d="M36.751 -6.135L36.754 -6.125"></path><path class="line undefined" style="stroke: #777;" d="M36.619 -6.079L36.616 -6.088"></path><path class="line undefined" style="stroke: #777;" d="M36.755 -6.078L36.754 -6.075"></path><path class="line undefined" style="stroke: #777;" d="M36.617 -6.116L36.618 -6.12"></path><path class="line undefined" style="stroke: #777;" d="M36.686 -6.137L36.683 -6.137"></path><path class="line undefined" style="stroke: #777;" d="M36.742 -6.176L36.741 -6.178"></path><path class="line undefined" style="stroke: #777;" d="M36.623 -6.097L36.622 -6.099"></path><path class="line undefined" style="stroke: #777;" d="M36.682 -6.138L36.68 -6.14"></path><path class="line undefined" style="stroke: #777;" d="M36.746 -6.167L36.744 -6.171"></path><path class="line undefined" style="stroke: #777;" d="M36.612 -6.117L36.614 -6.113"></path><path class="line undefined" style="stroke: #777;" d="M36.736 -6.186L36.732 -6.191"></path><path class="line undefined" style="stroke: #777;" d="M36.617 -6.107L36.621 -6.102"></path><path class="line undefined" style="stroke: #777;" d="M36.68 -6.14L36.683 -6.137"></path><path class="line undefined" style="stroke: #777;" d="M36.682 -6.138L36.686 -6.137"></path><circle class="station" data-id="0" data-label="Puerta del Sur" cx="36.675" cy="-6.149" r="0.1" fill="#333"></circle><circle class="station" data-id="1" data-label="UPACE" cx="36.671" cy="-6.146" r="0.1" fill="#333"></circle><circle class="station" data-id="2" data-label="Hospital FREMAP" cx="36.669" cy="-6.14" r="0.1" fill="#333"></circle><circle class="station" data-id="3" data-label="El Portal" cx="36.669" cy="-6.133" r="0.1" fill="#333"></circle><circle class="station" data-id="4" data-label="Parque Vallesequillo" cx="36.673" cy="-6.123" r="0.1" fill="#333"></circle><circle class="station" data-id="5" data-label="Timanfaya" cx="36.674" cy="-6.112" r="0.1" fill="#333"></circle><circle class="station" data-id="6" data-label="Rotonda 4" cx="36.677" cy="-6.105" r="0.1" fill="#333"></circle><circle class="station" data-id="7" data-label="Rotonda 6" cx="36.687" cy="-6.099" r="0.1" fill="#333"></circle><circle class="station" data-id="8" data-label="El Motorista" cx="36.693" cy="-6.103" r="0.1" fill="#333"></circle><circle class="station" data-id="9" data-label="La Granja" cx="36.698" cy="-6.107" r="0.1" fill="#333"></circle><circle class="station" data-id="10" data-label="La Pepa" cx="36.704" cy="-6.113" r="0.1" fill="#333"></circle><circle class="station" data-id="11" data-label="Corte Inglés" cx="36.706" cy="-6.116" r="0.1" fill="#333"></circle><circle class="station" data-id="12" data-label="Las Buganvillas" cx="36.707" cy="-6.128" r="0.1" fill="#333"></circle><circle class="station" data-id="13" data-label="Circunvalación" cx="36.702" cy="-6.141" r="0.1" fill="#333"></circle><circle class="station" data-id="14" data-label="Hospital" cx="36.698" cy="-6.147" r="0.1" fill="#333"></circle><circle class="station" data-id="15" data-label="San Juan de Dios" cx="36.695" cy="-6.151" r="0.1" fill="#333"></circle><circle class="station" data-id="16" data-label="Picadueñas" cx="36.684" cy="-6.154" r="0.1" fill="#333"></circle><circle class="station" data-id="17" data-label="Cuatro Caminos" cx="36.678" cy="-6.144" r="0.1" fill="#333"></circle><circle class="station" data-id="18" data-label="Puerta de Rota" cx="36.683" cy="-6.146" r="0.1" fill="#333"></circle><circle class="station" data-id="19" data-label="Luis Vives" cx="36.686" cy="-6.147" r="0.1" fill="#333"></circle><circle class="station" data-id="20" data-label="Santiago" cx="36.688" cy="-6.143" r="0.1" fill="#333"></circle><circle class="station" data-id="21" data-label="La Plata" cx="36.693" cy="-6.143" r="0.1" fill="#333"></circle><circle class="station" data-id="22" data-label="La Unión" cx="36.696" cy="-6.139" r="0.1" fill="#333"></circle><circle class="station" data-id="23" data-label="Federico García Lorca" cx="36.701" cy="-6.135" r="0.1" fill="#333"></circle><circle class="station" data-id="24" data-label="El Almendral" cx="36.7" cy="-6.131" r="0.1" fill="#333"></circle><circle class="station" data-id="25" data-label="Hontoria" cx="36.698" cy="-6.126" r="0.1" fill="#333"></circle><circle class="station" data-id="26" data-label="IFECA" cx="36.696" cy="-6.123" r="0.1" fill="#333"></circle><circle class="station" data-id="27" data-label="Catavinos" cx="36.689" cy="-6.127" r="0.1" fill="#333"></circle><circle class="station" data-id="28" data-label="Minotauro" cx="36.681" cy="-6.129" r="0.1" fill="#333"></circle><circle class="station" data-id="29" data-label="Madre de Dios" cx="36.679" cy="-6.13" r="0.1" fill="#333"></circle><circle class="station" data-id="30" data-label="San Telmo" cx="36.676" cy="-6.133" r="0.1" fill="#333"></circle><circle class="station" data-id="31" data-label="Plaza del Carbón" cx="36.678" cy="-6.139" r="0.1" fill="#333"></circle><circle class="station" data-id="32" data-label="Alameda Cristina" cx="36.686" cy="-6.137" r="0.1" fill="#333"></circle><circle class="station" data-id="33" data-label="Sevilla" cx="36.69" cy="-6.136" r="0.1" fill="#333"></circle><circle class="station" data-id="34" data-label="Feria" cx="36.693" cy="-6.123" r="0.1" fill="#333"></circle><circle class="station" data-id="35" data-label="Medina Sidonia" cx="36.678" cy="-6.124" r="0.1" fill="#333"></circle><circle class="station" data-id="36" data-label="Porvera" cx="36.688" cy="-6.14" r="0.1" fill="#333"></circle><circle class="station" data-id="37" data-label="Diego de Cádiz" cx="36.672" cy="-6.133" r="0.1" fill="#333"></circle><circle class="station" data-id="38" data-label="Ronda de San Telmo" cx="36.674" cy="-6.133" r="0.1" fill="#333"></circle><circle class="station" data-id="39" data-label="Blas Infante" cx="36.672" cy="-6.136" r="0.1" fill="#333"></circle><circle class="station" data-id="40" data-label="La Juventud" cx="36.675" cy="-6.141" r="0.1" fill="#333"></circle><circle class="station" data-id="41" data-label="Consejo de Europa" cx="36.676" cy="-6.143" r="0.1" fill="#333"></circle><circle class="station" data-id="42" data-label="Escuela de Arte Ecuestre" cx="36.692" cy="-6.137" r="0.1" fill="#333"></circle><circle class="station" data-id="43" data-label="Duque de Abrantes" cx="36.696" cy="-6.134" r="0.1" fill="#333"></circle><circle class="station" data-id="44" data-label="Donantes de Sangre" cx="36.703" cy="-6.13" r="0.1" fill="#333"></circle><circle class="station" data-id="45" data-label="Plaza del Caballo" cx="36.694" cy="-6.131" r="0.1" fill="#333"></circle><circle class="station" data-id="46" data-label="Av. Andalucía" cx="36.701" cy="-6.122" r="0.1" fill="#333"></circle><circle class="station" data-id="47" data-label="Av. Europa" cx="36.697" cy="-6.116" r="0.1" fill="#333"></circle><circle class="station" data-id="48" data-label="Av. La Granja" cx="36.699" cy="-6.102" r="0.1" fill="#333"></circle><circle class="station" data-id="49" data-label="Villamarta" cx="36.683" cy="-6.135" r="0.1" fill="#333"></circle><circle class="station" data-id="50" data-label="Arcos" cx="36.684" cy="-6.13" r="0.1" fill="#333"></circle><circle class="station" data-id="51" data-label="Chapín" cx="36.686" cy="-6.121" r="0.1" fill="#333"></circle><circle class="station" data-id="52" data-label="Universidad" cx="36.687" cy="-6.116" r="0.1" fill="#333"></circle><circle class="station" data-id="53" data-label="Biarritz" cx="36.689" cy="-6.111" r="0.1" fill="#333"></circle><circle class="station" data-id="54" data-label="Ciudad de los Niños" cx="36.692" cy="-6.106" r="0.1" fill="#333"></circle><circle class="station" data-id="55" data-label="Almunia" cx="36.695" cy="-6.1" r="0.1" fill="#333"></circle><circle class="station" data-id="56" data-label="Caulina" cx="36.697" cy="-6.096" r="0.1" fill="#333"></circle><circle class="station" data-id="57" data-label="El Retiro" cx="36.682" cy="-6.121" r="0.1" fill="#333"></circle><circle class="station" data-id="58" data-label="La Consolación" cx="36.683" cy="-6.116" r="0.1" fill="#333"></circle><circle class="station" data-id="59" data-label="Las Delicias" cx="36.683" cy="-6.112" r="0.1" fill="#333"></circle><circle class="station" data-id="60" data-label="La Pita" cx="36.687" cy="-6.102" r="0.1" fill="#333"></circle><circle class="station" data-id="61" data-label="Cementerio" cx="36.686" cy="-6.095" r="0.1" fill="#333"></circle><circle class="station" data-id="62" data-label="Vallesequillo" cx="36.677" cy="-6.125" r="0.1" fill="#333"></circle><circle class="station" data-id="63" data-label="Moreno Mendoza" cx="36.672" cy="-6.129" r="0.1" fill="#333"></circle><circle class="station" data-id="64" data-label="Azorín" cx="36.675" cy="-6.137" r="0.1" fill="#333"></circle><circle class="station" data-id="65" data-label="Caparrós" cx="36.672" cy="-6.144" r="0.1" fill="#333"></circle><circle class="station" data-id="66" data-label="La igualdad" cx="36.672" cy="-6.14" r="0.1" fill="#333"></circle><circle class="station" data-id="67" data-label="Av. de Italia" cx="36.668" cy="-6.149" r="0.1" fill="#333"></circle><circle class="station" data-id="68" data-label="Finlandia" cx="36.671" cy="-6.151" r="0.1" fill="#333"></circle><circle class="station" data-id="69" data-label="Zoo" cx="36.691" cy="-6.148" r="0.1" fill="#333"></circle><circle class="station" data-id="70" data-label="Rocio" cx="36.693" cy="-6.15" r="0.1" fill="#333"></circle><circle class="station" data-id="71" data-label="Luz Shopping (i)" cx="36.695" cy="-6.16" r="0.1" fill="#333"></circle><circle class="station" data-id="72" data-label="Luz Shopping (ii)" cx="36.692" cy="-6.16" r="0.1" fill="#333"></circle><circle class="station" data-id="73" data-label="Area Sur" cx="36.692" cy="-6.157" r="0.1" fill="#333"></circle><circle class="station" data-id="74" data-label="Plaza de las Marinas" cx="36.698" cy="-6.136" r="0.1" fill="#333"></circle><circle class="station" data-id="75" data-label="Av. del Tamarix" cx="36.705" cy="-6.133" r="0.1" fill="#333"></circle><circle class="station" data-id="76" data-label="Albariza" cx="36.703" cy="-6.126" r="0.1" fill="#333"></circle><circle class="station" data-id="77" data-label="San José Obrero" cx="36.706" cy="-6.106" r="0.1" fill="#333"></circle><circle class="station" data-id="78" data-label="Setefilla" cx="36.704" cy="-6.102" r="0.1" fill="#333"></circle><circle class="station" data-id="79" data-label="Manuel F. Cruz" cx="36.702" cy="-6.104" r="0.1" fill="#333"></circle><circle class="station" data-id="80" data-label="La Marquesa" cx="36.692" cy="-6.098" r="0.1" fill="#333"></circle><circle class="station" data-id="81" data-label="Afanas" cx="36.694" cy="-6.096" r="0.1" fill="#333"></circle><circle class="station" data-id="82" data-label="Ctra. Guadalcacín" cx="36.7" cy="-6.097" r="0.1" fill="#333"></circle><circle class="station" data-id="83" data-label="Palacio Municipal de Deportes" cx="36.694" cy="-6.116" r="0.1" fill="#333"></circle><circle class="station" data-id="84" data-label="Lola Flores" cx="36.691" cy="-6.112" r="0.1" fill="#333"></circle><circle class="station" data-id="85" data-label="Olivar de Rivero" cx="36.687" cy="-6.11" r="0.1" fill="#333"></circle><circle class="station" data-id="86" data-label="Av. Taginaste" cx="36.689" cy="-6.103" r="0.1" fill="#333"></circle><circle class="station" data-id="87" data-label="Parque Atlántico" cx="36.679" cy="-6.12" r="0.1" fill="#333"></circle><circle class="station" data-id="88" data-label="Club Nazaret" cx="36.678" cy="-6.116" r="0.1" fill="#333"></circle><circle class="station" data-id="89" data-label="Av. Nazaret" cx="36.677" cy="-6.11" r="0.1" fill="#333"></circle><circle class="station" data-id="90" data-label="La Canaleja" cx="36.68" cy="-6.105" r="0.1" fill="#333"></circle><circle class="station" data-id="91" data-label="Plaza Macedonia" cx="36.681" cy="-6.111" r="0.1" fill="#333"></circle><circle class="station" data-id="92" data-label="Tartessos" cx="36.68" cy="-6.117" r="0.1" fill="#333"></circle><circle class="station" data-id="93" data-label="El Altillo" cx="36.7" cy="-6.119" r="0.1" fill="#333"></circle><circle class="station" data-id="94" data-label="Pozo Albero" cx="36.712" cy="-6.11" r="0.1" fill="#333"></circle><circle class="station" data-id="95" data-label="Gallo Azul" cx="36.683" cy="-6.137" r="0.1" fill="#333"></circle><circle class="station" data-id="96" data-label="Arenal" cx="36.682" cy="-6.138" r="0.1" fill="#333"></circle><circle class="station" data-id="97" data-label="Alameda Vieja" cx="36.68" cy="-6.14" r="0.1" fill="#333"></circle></g></svg>